<?xml version="1.0" encoding="UTF-8"?><svg id="_레이어_2" xmlns="http://www.w3.org/2000/svg" width="200" height="40" viewBox="0 0 200 40"><defs><style>.cls-1,.cls-2{fill:#fff;}.cls-2{opacity:0;}.cls-3{fill:#b9baba;}.cls-4{fill:#141618;}</style></defs><g id="_레이어_1-2"><rect class="cls-2" width="200" height="40"/><polygon class="cls-4" points="56.42 8.73 51.02 8.73 51.02 31.94 68.34 31.94 68.34 27.56 56.42 27.56 56.42 8.73"/><rect class="cls-4" x="69.39" y="7.94" width="5.4" height="5.23"/><rect class="cls-4" x="69.39" y="14.51" width="5.4" height="17.43"/><path class="cls-4" d="m93.19,15.88c-.72-.61-1.57-1.09-2.52-1.43-1.52-.54-3.11-.65-4.74-.34-.57.11-1.13.27-1.67.48-.53.21-1.04.47-1.51.76-.21.13-.41.28-.59.43l-.27-1.27h-4.63v17.43h5.4v-9.89c.22-1.18.7-2.1,1.42-2.76.71-.64,1.55-.97,2.51-.97,1.11,0,1.99.33,2.61.98.63.65.95,1.76.95,3.29v9.35h5.4v-10.88c0-1.06-.21-2.05-.62-2.93-.41-.88-.99-1.63-1.72-2.25Z"/><path class="cls-4" d="m132.84,16.58c-.83-.82-1.79-1.47-2.86-1.94-1.07-.47-2.2-.7-3.35-.7-1.41,0-2.7.24-3.84.7-.77.31-1.46.72-2.06,1.21v-7.12h-5.4v23.09l-8.76-9.14,8.66-8.18h-6.76l-5.78,5.5v-11.27h-5.4v23.2h5.4v-6.3l6.05,6.3h11.21l.4-1.7c.23.21.48.42.75.61.51.37,1.08.68,1.68.93.59.25,1.22.44,1.87.56.56.11,1.14.17,1.71.17.09,0,.17,0,.26,0,1.21-.02,2.37-.27,3.45-.75,1.08-.47,2.03-1.12,2.84-1.94.81-.81,1.47-1.79,1.95-2.9.49-1.12.73-2.35.73-3.65s-.25-2.6-.75-3.74c-.49-1.13-1.17-2.13-2-2.95Zm-2.66,6.68c0,.75-.12,1.44-.35,2.04-.23.6-.55,1.11-.95,1.53-.4.41-.87.73-1.41.95-1.1.44-2.41.44-3.5,0-.54-.22-1.01-.54-1.41-.95-.4-.42-.72-.93-.95-1.53-.23-.6-.35-1.29-.35-2.04,0-.79.12-1.49.35-2.1.23-.6.55-1.11.95-1.53.4-.41.87-.73,1.41-.95.54-.22,1.13-.33,1.75-.33s1.21.11,1.75.33c.54.22,1.01.54,1.41.95.4.42.72.93.95,1.53.23.6.35,1.31.35,2.1Z"/><path class="cls-4" d="m155.37,22.76c-.06-1.32-.34-2.55-.85-3.67-.5-1.12-1.19-2.09-2.04-2.89-.85-.8-1.87-1.44-3.02-1.89-1.15-.45-2.43-.68-3.81-.68s-2.74.23-3.94.7c-1.21.46-2.28,1.12-3.17,1.96-.89.84-1.6,1.86-2.12,3.04s-.77,2.49-.77,3.91.28,2.8.82,3.97c.54,1.18,1.3,2.19,2.24,3.01.94.82,2.05,1.46,3.31,1.9,1.25.44,2.62.66,4.06.66,1.68,0,3.27-.35,4.7-1.04,1.43-.69,2.68-1.66,3.7-2.9l.31-.37-3.59-2.74-.28.34c-.7.84-1.49,1.45-2.35,1.79-.87.35-1.86.53-2.93.53s-2.05-.23-2.79-.67c-.57-.34-1.03-.81-1.37-1.38l13.92-3.21-.02-.39Zm-5.61-2.75l-8.96,2.14c.17-1.18.64-2.15,1.39-2.87.88-.84,2.11-1.27,3.66-1.27.92,0,1.75.2,2.47.6.56.31,1.04.78,1.44,1.41Z"/><path class="cls-4" d="m194.38,14.51v9.48c-.21,1.08-.69,1.96-1.42,2.61-.71.64-1.55.96-2.51.96-1.11,0-1.99-.33-2.61-.98-.63-.65-.95-1.76-.95-3.29v-8.78h-9.27c-1.01,0-1.9.18-2.66.52-.45.21-.85.47-1.19.78l-.28-1.3h-8.61c-1.01,0-1.9.18-2.66.52-.45.21-.85.47-1.19.78l-.28-1.3h-4.74v17.43h5.4v-9.58c0-.45.08-.9.23-1.31.15-.42.36-.8.62-1.13.25-.32.55-.58.88-.76.31-.18.65-.27,1-.27h3.92l.69-3.35v16.4h5.4v-9.58c0-.45.08-.9.23-1.31.15-.42.36-.8.62-1.13.25-.32.55-.58.88-.76.31-.18.65-.27,1-.27h3.92l.69-3.35v9c0,1.06.21,2.06.62,2.97.41.9.99,1.69,1.71,2.35.72.65,1.57,1.16,2.52,1.53,1.94.74,4.22.74,6.26-.01.66-.24,1.25-.58,1.77-1.02v.39c0,1.54-.37,2.73-1.09,3.56-.72.82-1.65,1.22-2.86,1.22-1.01,0-1.8-.25-2.34-.73-.54-.48-.84-1.2-.91-2.15l-.03-.43h-5.47l.05.51c.12,1.25.46,2.35,1.01,3.27.55.91,1.26,1.67,2.1,2.26.84.59,1.81,1.02,2.89,1.29.93.23,1.91.35,2.92.35.15,0,.3,0,.45,0,1.28-.04,2.46-.28,3.51-.7,1.06-.43,1.99-1.04,2.76-1.83.77-.79,1.37-1.75,1.79-2.85.41-1.09.62-2.35.62-3.72V14.51h-5.4Z"/><path class="cls-1" d="m36.41,28.99l-3.3,2.99-4.85,3.04-7.95,1.3-8.47-.59-5.46-2.47-2.92-2.86-1.47-2.2-.38-.74c-.56-1.24-.89-2.73-.89-2.73l-.13-.69-.12-1.43.31-1.63,1.24-3.99,2.14-5.55,4.53-5.14,6.98-2.33h7.83l7.27,2.81,4.9,4.23,2.91,6.33.76,3.28.06,1.43-.04.59s-.04.72-.34,1.84l-.35,1.05-1.18,2.07-1.08,1.37Z"/><path class="cls-4" d="m22.82,25.51c-.22.04-.36.27-.31.5.05.23.26.39.48.34.22-.04.36-.27.31-.5-.05-.23-.26-.39-.48-.34Z"/><path class="cls-4" d="m33.1,23.39c-.05-.19-.42-.38-.88-.53-.67-.22-1.67-.45-3.11-.41-1.42.04-2.81.46-3.75,1.08-.36.24-.47.47-.4.67.08.24.38.26.7.09.21-.11.51-.31.97-.52.04.88.19,1.67.61,2.4.47.82,1.2,1.14,2.06,1.2.88.05,1.66-.3,2.12-.9.42-.54.57-1.23.61-1.9.03-.41,0-.77-.06-1.05.13.04.24.07.32.11.26.1.44.17.59.15.14-.02.27-.19.22-.38Zm-4.5,1.58c-.4.23-.75.18-.95-.06-.2-.25-.22-.93-.15-1.2.07-.27.28-.38.53-.42s.57.06.85.41c.28.35.3.93-.28,1.27Zm1.38.46c-.03.12-.14.21-.37.2-.24-.01-.34-.18-.33-.38.01-.2.24-.27.45-.2.19.06.29.23.25.39Z"/><path class="cls-4" d="m20.76,23.8c-.24-.24-1.35-.82-2.3-1-.94-.18-2.42-.28-4.57.15-1.56.31-2.65.8-3.29,1.13-.38.2-.52.46-.42.7.1.26.4.28.69.13.28-.15,1.15-.59,2.29-.91.03.93.2,1.88.87,2.79.71.97,1.63,1.33,2.79,1.2,1.11-.12,1.73-.75,2.02-1.39.29-.64.34-1.44.11-2.21-.08-.28-.17-.5-.27-.67.65.19,1.03.41,1.28.6.33.25.6.35.82.2.11-.07.28-.4-.03-.72Zm-5.03,1.9c-.19.02-.35-.15-.37-.37-.02-.22,0-.41.19-.45.18-.04.39.19.42.42.03.23-.08.39-.24.4Zm2.37-.45c-.1.2-.37.23-.62.14s-.78-.34-.86-.89c-.06-.37.04-.68.22-.87.18-.19.53-.15.69,0,.2.19.25.5.39.79.12.26.29.64.19.84Z"/><path class="cls-4" d="m37.74,21.08c-.44-1.1-1.59-1.55-2.52-1.61,0,0,.17-.87-.31-2.49-.48-1.61-1.25-3.2-2.91-5.18-1.43-1.71-4.09-3.23-6.82-4-2.73-.77-5.43-1.07-9.64-.55-4.21.52-6.23,2.43-7.71,4.52-1.35,1.92-2.23,5.07-2.06,8.56,0,0-1.04-.18-2.1.33-1.39.67-2.05,2.17-1.42,4.71.43,1.73,1.34,2.49,2.03,2.97,1.25.88,2.55.79,2.55.79.39.89,1.38,1.86,2.07,2.3,1.03.66,2.41,1.23,5.41,1.46,3,.23,6.59.24,10.34-.44,3.75-.68,7.14-2.38,8.57-3.72,1.43-1.34,1.87-2,1.87-2,0,0,1.34-.18,2.16-1.64.82-1.46.89-3.01.49-3.99Zm-11.1-2.16c.69-.24,1.78-.36,2.9-.2.8.11,1.56.39,2.08.66-.47.09-1.34.19-1.34.19-.8-.25-1.89-.36-2.76-.21-.35.06-.65.16-.9.28-.46-.02-1.14-.08-1.14-.08.3-.21.71-.46,1.16-.62Zm-8.34-11.33c.64,1.12.93,2.04,1.21,3.14.35,1.38.44,2.18.82,3.26.38,1.08.82,2.85.86,3.76.03.8,0,1.43,0,1.43,0,0-.48.07-.83.16,0,0,.1-.46.07-.96-.05-.92-.16-2.21-.83-4.32-.59-1.87-.79-4.35-1.97-6.43,0,0,.3-.03.68-.04Zm-6.19,12.07c.97-.45,2.71-.7,4.22-.43.82.15,1.51.42,1.96.69-.46.12-1.2.25-1.2.25-.07-.03-.14-.06-.2-.08-.59-.22-1.57-.4-2.73-.27-1.16.13-1.81.34-2.27.68-.09.06-.16.13-.23.19-.43,0-.88,0-.88,0,.22-.3.6-.7,1.34-1.04Zm-7.91,7.02c-.8-.86-1.53-2.09-1.36-3.71.1-.99.82-1.6,1.43-1.84.81-.32,1.59-.14,1.59-.14.14.89.32,2.48.25,3.34-.07.86,0,2.41.11,3.11,0,0-1.23.09-2.02-.77Zm21.41,4.18c-.3.65-.86.87-1.33.95-.6.11-1.28.05-1.77-.2-.44-.22-.89-.81-1.05-1.23-.16-.42-.25-.83-.24-1.07s.16-.26.53-.3c.35-.04,2.13-.26,2.73-.36.6-.1.76-.14.91-.08.15.06.23.18.32.58.09.42.13,1.2-.1,1.7Zm8.37-7.36c.05.8.25,1.41.23,2.32s-.69,1.7-1.62,2.45c-.93.75-2.26,1.71-4.46,2.51-.56.2-1.12.38-1.71.55.13-.27.27-.72.27-1.27,0-.75-.25-1.75-.51-2.04-.26-.29-.55-.27-.85-.2s-.84.13-2.05.3c-1.2.17-2.25.25-2.55.3-.3.05-.44.17-.49.52-.05.35.05.97.26,1.48.19.45.79,1.26,1.39,1.75-.34.04-.68.07-1.04.09-2.61.2-6.09.1-8.25-.38-2.16-.48-3.8-1.24-4.66-2.62-.86-1.39-1.07-2.64-1.02-3.77s-.07-2.32-.18-3.36c-.03-.3-.07-.61-.1-.94.86.14,2.26.21,3.77.2-.1.36.03.56.2.65.23.11.41-.1.51-.44.02-.07.05-.14.08-.21.44,0,.89-.02,1.32-.04,1.98-.09,4.01-.4,5.4-.7.16.11.29.21.38.29.25.22.46.15.58.03.1-.1.15-.29-.03-.55,1.26-.34,2.35-.69,3.07-.58.45.07,1.47.23,2.83.35-.16.23-.18.42-.09.57.1.16.4.16.81-.25.07-.08.15-.16.24-.24.63.04,1.3.07,2.01.08,1.4.02,2.63-.1,3.65-.26.42.28.64.51.77.63.18.15.46.07.51-.21.03-.21-.04-.4-.26-.62.53-.12.98-.24,1.34-.35.19-.06.37-.12.53-.18-.03.41-.08.81-.14,1.29-.13,1.13-.2,2.07-.15,2.87Zm2.62,1.33c-.43.64-1.42.92-1.42.92.09-.41-.2-1.68-.26-2.67-.06-.99-.02-1.71.15-2.74,0,0,1.89-.12,2.21,1.73.19,1.11-.2,2.04-.68,2.76Z"/><path class="cls-3" d="m3.07,19.4c.45-.21.89-.34,1.29-.41.08-3.1.92-6.02,2.33-8.02,1.45-2.05,3.75-4.49,8.67-5.1,4.01-.5,6.96-.33,10.19.59,3.05.87,5.93,2.57,7.51,4.45,1.6,1.9,2.58,3.66,3.18,5.69.21.69.31,1.28.36,1.76.99.35,1.95,1.05,2.43,2.22.26.63.36,1.35.33,2.1.12-.87.18-1.76.18-2.66C39.54,9.12,30.72.3,19.84.3S.14,9.12.14,20c0,1.63.2,3.22.58,4.74-.52-3.52,1.43-4.9,2.35-5.34Z"/><path class="cls-3" d="m38.47,25.76c-.77,1.36-1.87,1.94-2.56,2.18-.31.37-.85.97-1.73,1.8-1.53,1.43-5.08,3.31-9.27,4.08-2.21.4-4.51.6-6.95.6-1.21,0-2.45-.05-3.74-.15-3.43-.26-4.93-.96-6.05-1.67-.69-.44-1.56-1.24-2.16-2.13-.66-.1-1.59-.35-2.5-.99-.62-.43-1.32-1.03-1.88-2,2.94,7.18,10,12.23,18.23,12.23,9.33,0,17.14-6.49,19.18-15.2-.14.43-.33.85-.55,1.26Z"/></g></svg>