<?xml version="1.0" encoding="UTF-8"?><svg id="_레이어_2" xmlns="http://www.w3.org/2000/svg" width="20" height="20" viewBox="0 0 20 20"><defs><style>.cls-1,.cls-2{fill:#fff;}.cls-2{opacity:0;}.cls-3{fill:#141618;}</style></defs><g id="_레이어_1-2"><rect class="cls-2" width="20" height="20"/><path class="cls-1" d="m6.88,4.55l8.49,4.91c.41.24.41.84,0,1.08l-8.49,4.91c-.42.24-.94-.06-.94-.54V5.09c0-.48.52-.78.94-.54Z"/><path class="cls-3" d="m6.57,16.16c-.21,0-.43-.06-.62-.17-.39-.23-.63-.63-.63-1.08V5.09c0-.45.23-.86.62-1.08.39-.23.86-.23,1.25,0h0l8.49,4.91c.39.23.62.63.62,1.08s-.23.85-.62,1.08l-8.49,4.91c-.2.11-.41.17-.63.17Zm0-11.08v9.83s8.49-4.91,8.49-4.91L6.57,5.09Z"/></g></svg>