<?xml version="1.0" encoding="UTF-8"?><svg id="_레이어_2" xmlns="http://www.w3.org/2000/svg" width="61.2" height="40" viewBox="0 0 61.2 40"><defs><style>.cls-1,.cls-2{fill:#fff;}.cls-2{opacity:0;}.cls-3{fill:#141618;}</style></defs><g id="_레이어_1-2"><rect class="cls-2" width="61.2" height="40"/><path class="cls-1" d="m9.86,20c0,3.29.15,6.71.42,8.45s.88,2.91,1.69,3.74,2.12,1.53,5.06,1.85c3.96.42,9.92.5,13.58.5s9.62-.08,13.58-.5c2.94-.31,4.24-1.02,5.06-1.85s1.41-1.92,1.69-3.74.42-5.16.42-8.45-.15-6.71-.42-8.45-.88-2.91-1.69-3.74-2.12-1.53-5.06-1.85c-3.96-.42-9.92-.5-13.58-.5s-9.62.08-13.58.5c-2.94.31-4.24,1.02-5.06,1.85s-1.41,1.92-1.69,3.74-.42,5.16-.42,8.45Z"/><circle class="cls-3" cx="16.61" cy="6.48" r=".32"/><circle class="cls-3" cx="19.03" cy="6.48" r=".32"/><circle class="cls-3" cx="21.45" cy="6.48" r=".32"/><circle class="cls-3" cx="23.87" cy="6.48" r=".32"/><circle class="cls-3" cx="26.29" cy="6.48" r=".32"/><circle class="cls-3" cx="28.71" cy="6.48" r=".32"/><circle class="cls-3" cx="31.13" cy="6.48" r=".32"/><circle class="cls-3" cx="33.55" cy="6.48" r=".32"/><circle class="cls-3" cx="35.98" cy="6.48" r=".32"/><circle class="cls-3" cx="38.4" cy="6.48" r=".32"/><circle class="cls-3" cx="40.82" cy="6.48" r=".32"/><circle class="cls-3" cx="43.24" cy="6.48" r=".32"/><circle class="cls-3" cx="45.66" cy="6.48" r=".32"/><circle class="cls-3" cx="11.76" cy="11.32" r=".32"/><circle class="cls-3" cx="14.19" cy="11.32" r=".32"/><circle class="cls-3" cx="16.61" cy="11.32" r=".32"/><circle class="cls-3" cx="19.03" cy="11.32" r=".32"/><circle class="cls-3" cx="21.45" cy="11.32" r=".32"/><circle class="cls-3" cx="23.87" cy="11.32" r=".32"/><circle class="cls-3" cx="26.29" cy="11.32" r=".32"/><circle class="cls-3" cx="28.71" cy="11.32" r=".32"/><circle class="cls-3" cx="31.13" cy="11.32" r=".32"/><circle class="cls-3" cx="33.55" cy="11.32" r=".32"/><circle class="cls-3" cx="35.98" cy="11.32" r=".32"/><circle class="cls-3" cx="38.4" cy="11.32" r=".32"/><circle class="cls-3" cx="40.82" cy="11.32" r=".32"/><circle class="cls-3" cx="43.24" cy="11.32" r=".32"/><circle class="cls-3" cx="45.66" cy="11.32" r=".32"/><circle class="cls-3" cx="48.08" cy="11.32" r=".32"/><circle class="cls-3" cx="50.5" cy="11.32" r=".32"/><circle class="cls-3" cx="11.76" cy="16.17" r=".32"/><circle class="cls-3" cx="14.19" cy="16.17" r=".32"/><circle class="cls-3" cx="16.61" cy="16.17" r=".32"/><circle class="cls-3" cx="19.03" cy="16.17" r=".32"/><circle class="cls-3" cx="21.45" cy="16.17" r=".32"/><circle class="cls-3" cx="23.87" cy="16.17" r=".32"/><circle class="cls-3" cx="26.29" cy="16.17" r=".32"/><circle class="cls-3" cx="28.71" cy="16.17" r=".32"/><circle class="cls-3" cx="31.13" cy="16.17" r=".32"/><circle class="cls-3" cx="33.55" cy="16.17" r=".32"/><circle class="cls-3" cx="35.98" cy="16.17" r=".32"/><circle class="cls-3" cx="38.4" cy="16.17" r=".32"/><circle class="cls-3" cx="40.82" cy="16.17" r=".32"/><circle class="cls-3" cx="43.24" cy="16.17" r=".32"/><circle class="cls-3" cx="45.66" cy="16.17" r=".32"/><circle class="cls-3" cx="48.08" cy="16.17" r=".32"/><circle class="cls-3" cx="50.5" cy="16.17" r=".32"/><circle class="cls-3" cx="11.76" cy="21.01" r=".32"/><circle class="cls-3" cx="14.19" cy="21.01" r=".32"/><circle class="cls-3" cx="16.61" cy="21.01" r=".32"/><circle class="cls-3" cx="19.03" cy="21.01" r=".32"/><circle class="cls-3" cx="21.45" cy="21.01" r=".32"/><circle class="cls-3" cx="23.87" cy="21.01" r=".32"/><circle class="cls-3" cx="26.29" cy="21.01" r=".32"/><circle class="cls-3" cx="28.71" cy="21.01" r=".32"/><circle class="cls-3" cx="31.13" cy="21.01" r=".32"/><circle class="cls-3" cx="33.55" cy="21.01" r=".32"/><circle class="cls-3" cx="35.98" cy="21.01" r=".32"/><circle class="cls-3" cx="38.4" cy="21.01" r=".32"/><circle class="cls-3" cx="40.82" cy="21.01" r=".32"/><circle class="cls-3" cx="43.24" cy="21.01" r=".32"/><circle class="cls-3" cx="45.66" cy="21.01" r=".32"/><circle class="cls-3" cx="48.08" cy="21.01" r=".32"/><circle class="cls-3" cx="50.5" cy="21.01" r=".32"/><circle class="cls-3" cx="11.76" cy="25.85" r=".32"/><circle class="cls-3" cx="14.19" cy="25.85" r=".32"/><circle class="cls-3" cx="16.61" cy="25.85" r=".32"/><circle class="cls-3" cx="19.03" cy="25.85" r=".32"/><circle class="cls-3" cx="21.45" cy="25.85" r=".32"/><circle class="cls-3" cx="23.87" cy="25.85" r=".32"/><circle class="cls-3" cx="26.29" cy="25.85" r=".32"/><circle class="cls-3" cx="28.71" cy="25.85" r=".32"/><circle class="cls-3" cx="31.13" cy="25.85" r=".32"/><circle class="cls-3" cx="33.55" cy="25.85" r=".32"/><circle class="cls-3" cx="35.98" cy="25.85" r=".32"/><circle class="cls-3" cx="38.4" cy="25.85" r=".32"/><circle class="cls-3" cx="40.82" cy="25.85" r=".32"/><circle class="cls-3" cx="43.24" cy="25.85" r=".32"/><circle class="cls-3" cx="45.66" cy="25.85" r=".32"/><circle class="cls-3" cx="48.08" cy="25.85" r=".32"/><circle class="cls-3" cx="50.5" cy="25.85" r=".32"/><circle class="cls-3" cx="11.76" cy="30.69" r=".32"/><circle class="cls-3" cx="14.19" cy="30.69" r=".32"/><circle class="cls-3" cx="16.61" cy="30.69" r=".32"/><circle class="cls-3" cx="19.03" cy="30.69" r=".32"/><circle class="cls-3" cx="21.45" cy="30.69" r=".32"/><circle class="cls-3" cx="23.87" cy="30.69" r=".32"/><circle class="cls-3" cx="26.29" cy="30.69" r=".32"/><circle class="cls-3" cx="28.71" cy="30.69" r=".32"/><circle class="cls-3" cx="31.13" cy="30.69" r=".32"/><circle class="cls-3" cx="33.55" cy="30.69" r=".32"/><circle class="cls-3" cx="35.98" cy="30.69" r=".32"/><circle class="cls-3" cx="38.4" cy="30.69" r=".32"/><circle class="cls-3" cx="40.82" cy="30.69" r=".32"/><circle class="cls-3" cx="43.24" cy="30.69" r=".32"/><circle class="cls-3" cx="45.66" cy="30.69" r=".32"/><circle class="cls-3" cx="48.08" cy="30.69" r=".32"/><circle class="cls-3" cx="12.97" cy="8.9" r=".32"/><circle class="cls-3" cx="15.4" cy="8.9" r=".32"/><circle class="cls-3" cx="17.82" cy="8.9" r=".32"/><circle class="cls-3" cx="20.24" cy="8.9" r=".32"/><circle class="cls-3" cx="22.66" cy="8.9" r=".32"/><circle class="cls-3" cx="25.08" cy="8.9" r=".32"/><circle class="cls-3" cx="27.5" cy="8.9" r=".32"/><circle class="cls-3" cx="29.92" cy="8.9" r=".32"/><circle class="cls-3" cx="32.34" cy="8.9" r=".32"/><circle class="cls-3" cx="34.76" cy="8.9" r=".32"/><circle class="cls-3" cx="37.19" cy="8.9" r=".32"/><circle class="cls-3" cx="39.61" cy="8.9" r=".32"/><circle class="cls-3" cx="42.03" cy="8.9" r=".32"/><circle class="cls-3" cx="44.45" cy="8.9" r=".32"/><circle class="cls-3" cx="46.87" cy="8.9" r=".32"/><circle class="cls-3" cx="49.29" cy="8.9" r=".32"/><circle class="cls-3" cx="10.55" cy="13.74" r=".32"/><circle class="cls-3" cx="12.97" cy="13.74" r=".32"/><circle class="cls-3" cx="15.4" cy="13.74" r=".32"/><circle class="cls-3" cx="17.82" cy="13.74" r=".32"/><circle class="cls-3" cx="20.24" cy="13.74" r=".32"/><circle class="cls-3" cx="22.66" cy="13.74" r=".32"/><circle class="cls-3" cx="25.08" cy="13.74" r=".32"/><circle class="cls-3" cx="27.5" cy="13.74" r=".32"/><circle class="cls-3" cx="29.92" cy="13.74" r=".32"/><circle class="cls-3" cx="32.34" cy="13.74" r=".32"/><circle class="cls-3" cx="34.76" cy="13.74" r=".32"/><circle class="cls-3" cx="37.19" cy="13.74" r=".32"/><circle class="cls-3" cx="39.61" cy="13.74" r=".32"/><circle class="cls-3" cx="42.03" cy="13.74" r=".32"/><circle class="cls-3" cx="44.45" cy="13.74" r=".32"/><circle class="cls-3" cx="46.87" cy="13.74" r=".32"/><circle class="cls-3" cx="49.29" cy="13.74" r=".32"/><circle class="cls-3" cx="10.55" cy="18.59" r=".32"/><circle class="cls-3" cx="12.97" cy="18.59" r=".32"/><circle class="cls-3" cx="15.4" cy="18.59" r=".32"/><circle class="cls-3" cx="17.82" cy="18.59" r=".32"/><circle class="cls-3" cx="20.24" cy="18.59" r=".32"/><circle class="cls-3" cx="22.66" cy="18.59" r=".32"/><circle class="cls-3" cx="25.08" cy="18.59" r=".32"/><circle class="cls-3" cx="27.5" cy="18.59" r=".32"/><circle class="cls-3" cx="29.92" cy="18.59" r=".32"/><circle class="cls-3" cx="32.34" cy="18.59" r=".32"/><circle class="cls-3" cx="34.76" cy="18.59" r=".32"/><circle class="cls-3" cx="37.19" cy="18.59" r=".32"/><circle class="cls-3" cx="39.61" cy="18.59" r=".32"/><circle class="cls-3" cx="42.03" cy="18.59" r=".32"/><circle class="cls-3" cx="44.45" cy="18.59" r=".32"/><circle class="cls-3" cx="46.87" cy="18.59" r=".32"/><circle class="cls-3" cx="49.29" cy="18.59" r=".32"/><circle class="cls-3" cx="10.55" cy="23.43" r=".32"/><circle class="cls-3" cx="12.97" cy="23.43" r=".32"/><circle class="cls-3" cx="15.4" cy="23.43" r=".32"/><circle class="cls-3" cx="17.82" cy="23.43" r=".32"/><circle class="cls-3" cx="20.24" cy="23.43" r=".32"/><circle class="cls-3" cx="22.66" cy="23.43" r=".32"/><circle class="cls-3" cx="25.08" cy="23.43" r=".32"/><circle class="cls-3" cx="27.5" cy="23.43" r=".32"/><circle class="cls-3" cx="29.92" cy="23.43" r=".32"/><circle class="cls-3" cx="32.34" cy="23.43" r=".32"/><circle class="cls-3" cx="34.76" cy="23.43" r=".32"/><circle class="cls-3" cx="37.19" cy="23.43" r=".32"/><circle class="cls-3" cx="39.61" cy="23.43" r=".32"/><circle class="cls-3" cx="42.03" cy="23.43" r=".32"/><circle class="cls-3" cx="44.45" cy="23.43" r=".32"/><circle class="cls-3" cx="46.87" cy="23.43" r=".32"/><circle class="cls-3" cx="49.29" cy="23.43" r=".32"/><circle class="cls-3" cx="10.55" cy="28.27" r=".32"/><circle class="cls-3" cx="12.97" cy="28.27" r=".32"/><circle class="cls-3" cx="15.4" cy="28.27" r=".32"/><circle class="cls-3" cx="17.82" cy="28.27" r=".32"/><circle class="cls-3" cx="20.24" cy="28.27" r=".32"/><circle class="cls-3" cx="22.66" cy="28.27" r=".32"/><circle class="cls-3" cx="25.08" cy="28.27" r=".32"/><circle class="cls-3" cx="27.5" cy="28.27" r=".32"/><circle class="cls-3" cx="29.92" cy="28.27" r=".32"/><circle class="cls-3" cx="32.34" cy="28.27" r=".32"/><circle class="cls-3" cx="34.76" cy="28.27" r=".32"/><circle class="cls-3" cx="37.19" cy="28.27" r=".32"/><circle class="cls-3" cx="39.61" cy="28.27" r=".32"/><circle class="cls-3" cx="42.03" cy="28.27" r=".32"/><circle class="cls-3" cx="44.45" cy="28.27" r=".32"/><circle class="cls-3" cx="46.87" cy="28.27" r=".32"/><circle class="cls-3" cx="49.29" cy="28.27" r=".32"/><circle class="cls-3" cx="15.4" cy="33.11" r=".32"/><circle class="cls-3" cx="17.82" cy="33.11" r=".32"/><circle class="cls-3" cx="20.24" cy="33.11" r=".32"/><circle class="cls-3" cx="22.66" cy="33.11" r=".32"/><circle class="cls-3" cx="25.08" cy="33.11" r=".32"/><circle class="cls-3" cx="27.5" cy="33.11" r=".32"/><circle class="cls-3" cx="29.92" cy="33.11" r=".32"/><circle class="cls-3" cx="32.34" cy="33.11" r=".32"/><circle class="cls-3" cx="34.76" cy="33.11" r=".32"/><circle class="cls-3" cx="37.19" cy="33.11" r=".32"/><circle class="cls-3" cx="39.61" cy="33.11" r=".32"/><circle class="cls-3" cx="42.03" cy="33.11" r=".32"/><circle class="cls-3" cx="44.45" cy="33.11" r=".32"/><circle class="cls-3" cx="46.87" cy="33.11" r=".32"/><polygon class="cls-3" points="7.23 4.02 7.88 5.33 9.32 5.54 8.28 6.56 8.52 7.99 7.23 7.31 5.94 7.99 6.19 6.56 5.15 5.54 6.59 5.33 7.23 4.02"/><polygon class="cls-3" points="55.97 13.18 56.61 14.48 58.05 14.69 57.01 15.71 57.26 17.14 55.97 16.47 54.68 17.14 54.92 15.71 53.88 14.69 55.32 14.48 55.97 13.18"/><rect class="cls-3" x="3.91" y="8.42" width="1.19" height="5.17" transform="translate(-7.37 11.61) rotate(-70.66)"/><rect class="cls-3" x="3.02" y="15.07" width="3.86" height="1.19" transform="translate(-2.75 1.15) rotate(-10.41)"/><rect class="cls-3" x="54.69" y="31.24" width="1.19" height="5.87" transform="translate(-1.77 65.3) rotate(-60.34)"/><rect class="cls-3" x="55.64" y="27.73" width="1.19" height="3.86" transform="translate(16.89 79.61) rotate(-79.57)"/><path class="cls-3" d="m30.6,35.16c-3.31,0-9.48-.07-13.64-.51-2.66-.28-4.34-.91-5.44-2.03-.99-1.01-1.59-2.31-1.86-4.08-.26-1.69-.42-4.96-.42-8.54s.16-6.86.42-8.54c.28-1.77.87-3.07,1.86-4.08,1.1-1.12,2.78-1.75,5.44-2.03,4.16-.44,10.33-.51,13.64-.51s9.48.07,13.64.51c2.66.28,4.34.91,5.44,2.03.99,1.01,1.59,2.31,1.86,4.08.26,1.69.42,4.96.42,8.54s-.16,6.86-.42,8.54c-.28,1.77-.87,3.07-1.86,4.08-1.1,1.12-2.78,1.75-5.44,2.03-4.16.44-10.33.51-13.64.51Zm0-29.07c-2.64,0-9.26.05-13.51.5-3.01.32-4.08,1.06-4.68,1.66-.81.83-1.28,1.88-1.52,3.39-.25,1.6-.41,4.88-.41,8.35s.16,6.75.41,8.35c.24,1.52.7,2.57,1.52,3.4.6.61,1.67,1.34,4.68,1.66,4.26.45,10.87.5,13.51.5s9.26-.05,13.51-.5c3.01-.32,4.08-1.06,4.68-1.66.81-.83,1.28-1.88,1.52-3.4.25-1.6.41-4.88.41-8.35s-.16-6.75-.41-8.35c-.24-1.52-.7-2.57-1.52-3.39-.6-.61-1.67-1.34-4.68-1.66-4.26-.45-10.87-.5-13.51-.5Z"/></g></svg>