<?xml version="1.0" encoding="UTF-8"?><svg id="_레이어_2" xmlns="http://www.w3.org/2000/svg" width="40" height="40" viewBox="0 0 40 40"><defs><style>.cls-1,.cls-2{fill:#fff;}.cls-2{opacity:0;}.cls-3{fill:#141618;}</style></defs><g id="_레이어_1-2"><rect class="cls-2" width="40" height="40"/><circle class="cls-1" cx="20" cy="20" r="18.88"/><path class="cls-3" d="m27.3,23.73c.06-.66.03-1.46-.53-2.21s-1.49-1.2-1.49-1.2c1.12-.34,1.71-.92,1.99-1.45.3-.56.54-1.33.44-2.28-.1-.95-.74-1.7-1.16-2.03-.42-.32-1-.72-1.74-1.02-.29-.12-.59-.24-.92-.35l.77-3.12-1.89-.46-.75,3.03c-.35-.08-.89-.21-1.54-.36l.76-3.05-1.89-.46-.76,3.08c-1.26-.29-2.64-.62-3.83-.92l-.5,2.03s.89.2,1.26.29c.38.1.64.22.84.49.2.27.17.6.07.94-.1.34-.4,1.66-.57,2.31s-1.31,5.24-1.41,5.66-.21.54-.4.66c-.19.11-.48.07-.89-.04s-1.01-.26-1.01-.26l-.95,2.17c1.37.31,2.63.64,3.82.96l-.78,3.15,1.89.46.77-3.11c.51.13,1,.26,1.49.38.01,0,.03,0,.04.01l-.77,3.09,1.89.46.78-3.13c.97.19,1.62.25,2.13.26.79.02,1.59-.06,2.2-.28.6-.22,1.23-.6,1.72-1.3.49-.7.85-1.77.91-2.43Zm-5.29-8.68c.57.2,1.03.44,1.42.78.39.34.48.69.55.95.06.26,0,.71-.15,1.05-.15.34-.44.6-.74.76-.3.16-.75.21-1.16.23-.42.02-1.02-.07-1.64-.2-.33-.07-.87-.21-1.29-.33l.94-3.78c.71.16,1.52.34,2.07.54Zm1.17,9.03c-.21.39-.55.57-.82.7-.26.13-.84.24-1.35.23-.5,0-1.01-.08-1.64-.19-.48-.08-1.34-.3-1.89-.45l1.04-4.18c1.2.27,2.14.51,2.78.76.66.25,1.06.51,1.44.81.38.3.55.68.65,1.01.1.33,0,.92-.21,1.31Z"/><path class="cls-3" d="m4.94,20h-1.25C3.69,11.01,11.01,3.69,20,3.69v1.25c-8.3,0-15.06,6.76-15.06,15.06Z"/><path class="cls-3" d="m4.52,25.14c-.23-.7-.42-1.42-.55-2.14l1.23-.23c.12.67.3,1.33.51,1.98l-1.19.39Z"/><path class="cls-3" d="m20,36.31v-1.25c8.3,0,15.06-6.76,15.06-15.06h1.25c0,8.99-7.32,16.31-16.31,16.31Z"/><path class="cls-3" d="m34.81,17.22c-.12-.67-.3-1.33-.51-1.97l1.19-.39c.23.7.42,1.42.55,2.14l-1.23.23Z"/><path class="cls-3" d="m20,1.75c10.06,0,18.25,8.19,18.25,18.25s-8.19,18.25-18.25,18.25S1.75,30.06,1.75,20,9.94,1.75,20,1.75m0-1.25C9.23.5.5,9.23.5,20s8.73,19.5,19.5,19.5,19.5-8.73,19.5-19.5S30.77.5,20,.5h0Z"/></g></svg>