<?xml version="1.0" encoding="UTF-8"?><svg id="_레이어_2" xmlns="http://www.w3.org/2000/svg" width="40" height="40" viewBox="0 0 40 40"><defs><style>.cls-1,.cls-2{fill:#fff;}.cls-2{opacity:0;}.cls-3{fill:#141618;}</style></defs><g id="_레이어_1-2"><path class="cls-1" d="m32,19.08c0-6.63-5.37-12-12-12s-12,5.37-12,12c0,4.05,2.02,7.63,5.09,9.8v6.35c0,1.53.37,1.86,1.12,2.44.75.58,3.46,1.49,5.79,1.49s5.04-.92,5.79-1.49c.75-.58,1.12-.92,1.12-2.44v-6.35c3.08-2.17,5.09-5.75,5.09-9.8Z"/><path class="cls-3" d="m20,6.47c-6.95,0-12.61,5.66-12.61,12.61,0,4.14,2.01,7.81,5.1,10.11v6.75c0,.89.48,1.73,1.24,2.19,1.89,1.13,4.05,1.72,6.26,1.72s4.38-.6,6.26-1.72c.77-.46,1.24-1.3,1.24-2.19v-6.75c3.09-2.3,5.1-5.97,5.1-10.11,0-6.95-5.66-12.61-12.61-12.61Zm6.26,29.46c0,.46-.24.89-.64,1.12-3.39,2.02-7.86,2.02-11.25,0-.39-.23-.64-.66-.64-1.12v-1.63c1.89,1.13,4.03,1.73,6.26,1.73s4.37-.6,6.26-1.73v1.63Zm0-3.12c-1.84,1.28-4,1.97-6.26,1.97s-4.42-.68-6.26-1.97v-2.81c1.85,1.06,3.98,1.68,6.26,1.68s4.41-.62,6.26-1.68v2.81Zm-3.9-2.63l4.83-8.81-1.18-.65-1,1.82c-.43-.72-1.17-1.23-2.07-1.31-1.48-.14-2.8.97-2.93,2.45-.13,1.48.97,2.8,2.45,2.93.08,0,.16.01.25.01.02,0,.04,0,.06,0l-2.07,3.77c-.23.01-.47.04-.71.04s-.47-.02-.71-.04l-2.07-3.77s.04,0,.06,0c.08,0,.16,0,.25-.01,1.48-.13,2.58-1.45,2.45-2.93-.13-1.48-1.45-2.59-2.93-2.45-.89.08-1.64.59-2.07,1.31l-1-1.82-1.18.65,4.83,8.81c-5.13-1.09-9-5.65-9-11.11,0-6.26,5.1-11.36,11.36-11.36s11.36,5.1,11.36,11.36c0,5.45-3.86,10.02-9,11.11Zm1.21-5.21c-.28.23-.63.34-.99.31-.75-.07-1.3-.73-1.23-1.47.06-.7.66-1.24,1.35-1.24.04,0,.08,0,.12,0,.36.03.69.2.92.48.23.28.34.63.31.99-.03.36-.2.69-.48.92Zm-7.15,0c-.28-.23-.45-.56-.48-.92-.03-.36.08-.71.31-.99.23-.28.56-.45.92-.48.04,0,.08,0,.12,0,.69,0,1.29.53,1.35,1.24.07.74-.49,1.41-1.23,1.47-.36.03-.71-.08-.99-.31Z"/><circle class="cls-3" cx="24.97" cy="9.4" r=".32"/><circle class="cls-3" cx="26.97" cy="9.4" r=".32"/><circle class="cls-3" cx="27.97" cy="11.4" r=".32"/><circle class="cls-3" cx="28.97" cy="13.4" r=".32"/><circle class="cls-3" cx="27.97" cy="15.4" r=".32"/><circle class="cls-3" cx="29.97" cy="15.4" r=".32"/><circle class="cls-3" cx="28.97" cy="17.4" r=".32"/><circle class="cls-3" cx="30.97" cy="17.4" r=".32"/><circle class="cls-3" cx="27.97" cy="19.4" r=".32"/><circle class="cls-3" cx="29.97" cy="19.4" r=".32"/><circle class="cls-3" cx="8.97" cy="21.4" r=".32"/><circle class="cls-3" cx="26.97" cy="21.4" r=".32"/><circle class="cls-3" cx="28.97" cy="21.4" r=".32"/><circle class="cls-3" cx="30.97" cy="21.4" r=".32"/><circle class="cls-3" cx="9.97" cy="23.4" r=".32"/><circle class="cls-3" cx="25.97" cy="23.4" r=".32"/><circle class="cls-3" cx="27.97" cy="23.4" r=".32"/><circle class="cls-3" cx="29.97" cy="23.4" r=".32"/><circle class="cls-3" cx="10.97" cy="25.4" r=".32"/><circle class="cls-3" cx="12.97" cy="25.4" r=".32"/><circle class="cls-3" cx="24.97" cy="25.4" r=".32"/><circle class="cls-3" cx="26.97" cy="25.4" r=".32"/><circle class="cls-3" cx="28.97" cy="25.4" r=".32"/><circle class="cls-3" cx="11.97" cy="27.4" r=".32"/><circle class="cls-3" cx="13.97" cy="27.4" r=".32"/><circle class="cls-3" cx="15.97" cy="27.4" r=".32"/><circle class="cls-3" cx="17.97" cy="27.4" r=".32"/><circle class="cls-3" cx="19.97" cy="27.4" r=".32"/><circle class="cls-3" cx="21.97" cy="27.4" r=".32"/><circle class="cls-3" cx="23.97" cy="27.4" r=".32"/><circle class="cls-3" cx="25.97" cy="27.4" r=".32"/><circle class="cls-3" cx="27.97" cy="27.4" r=".32"/><circle class="cls-3" cx="14.97" cy="29.4" r=".32"/><circle class="cls-3" cx="16.97" cy="29.4" r=".32"/><circle class="cls-3" cx="18.97" cy="29.4" r=".32"/><circle class="cls-3" cx="20.97" cy="29.4" r=".32"/><circle class="cls-3" cx="22.97" cy="29.4" r=".32"/><circle class="cls-3" cx="24.97" cy="29.4" r=".32"/><rect class="cls-2" width="40" height="40"/></g></svg>