<?xml version="1.0" encoding="UTF-8"?><svg id="_레이어_2" xmlns="http://www.w3.org/2000/svg" width="40" height="40" viewBox="0 0 40 40"><defs><style>.cls-1{fill:#fff;opacity:0;}.cls-2{fill:#141618;}</style></defs><g id="_레이어_1-2"><rect class="cls-1" width="40" height="40"/><path class="cls-2" d="m17.68,20.72c.29,0,.57.04.84.13v-3.41c-.27-.04-.55-.06-.84-.06-3.41,0-6.17,2.76-6.17,6.17s2.76,6.17,6.17,6.17,6.17-2.76,6.17-6.17v-6.78c1.31.94,2.91,1.49,4.64,1.49v-3.32c-2.58,0-4.67-2.09-4.67-4.67h-3.32v13.28c0,1.56-1.27,2.83-2.83,2.83s-2.83-1.27-2.83-2.83,1.27-2.83,2.83-2.83Z"/></g></svg>