<?xml version="1.0" encoding="UTF-8"?><svg id="_레이어_2" xmlns="http://www.w3.org/2000/svg" width="40" height="40" viewBox="0 0 40 40"><defs><style>.cls-1{fill:#fff;opacity:0;}.cls-2{fill:#141618;}</style></defs><g id="_레이어_1-2"><rect class="cls-1" width="40" height="40"/><path class="cls-2" d="m20,11.91c.46,0,1.67,0,2.7.01h.27c.85.01,1.31.02,1.97.13.69.11,1.01.27,1.3.43.35.19.56.38.73.55.16.16.35.38.55.73.16.29.32.62.43,1.3.11.66.12,1.13.13,1.97v.27c.02,1.03.02,2.24.02,2.7s0,1.67-.01,2.7v.27c-.01.85-.02,1.31-.13,1.97-.11.69-.27,1.01-.43,1.3-.19.35-.38.56-.55.73s-.38.35-.73.55c-.29.16-.62.32-1.3.43-.66.11-1.13.12-1.97.13h-.27c-1.03.02-2.24.02-2.7.02s-1.67,0-2.7-.01h-.27c-.85-.01-1.31-.02-1.97-.13-.69-.11-1.01-.27-1.3-.43-.35-.19-.56-.38-.73-.55s-.35-.38-.55-.73c-.16-.29-.32-.62-.43-1.3-.11-.66-.12-1.13-.13-1.97v-.27c-.02-1.03-.02-2.24-.02-2.7s0-1.67.01-2.7v-.27c.01-.85.02-1.31.13-1.97.11-.69.27-1.01.43-1.3.19-.35.38-.56.55-.73.16-.16.38-.35.73-.55.29-.16.62-.32,1.3-.43.66-.11,1.13-.12,1.97-.13h.27c1.03-.02,2.24-.02,2.7-.02m0-1.78c-.48,0-1.68,0-2.72.01s-1.64,0-2.51.15c-.92.15-1.42.38-1.87.62-.51.28-.86.58-1.13.85-.27.27-.57.62-.85,1.13-.24.45-.47.95-.62,1.87-.15.87-.14,1.47-.15,2.51s-.01,2.25-.01,2.72,0,1.68.01,2.72c.01,1.04,0,1.64.15,2.51.15.92.38,1.42.62,1.87.28.51.58.86.85,1.13s.62.57,1.13.85c.45.24.95.47,1.87.62.87.15,1.47.14,2.51.15s2.25.01,2.72.01,1.68,0,2.72-.01,1.64,0,2.51-.15c.92-.15,1.42-.38,1.87-.62.51-.28.86-.58,1.13-.85.27-.27.57-.62.85-1.13.24-.45.47-.95.62-1.87.15-.87.14-1.47.15-2.51.01-1.04.01-2.25.01-2.72s0-1.68-.01-2.72,0-1.64-.15-2.51c-.15-.92-.38-1.42-.62-1.87-.28-.51-.58-.86-.85-1.13-.27-.27-.62-.57-1.13-.85-.45-.24-.95-.47-1.87-.62-.87-.15-1.47-.14-2.51-.15s-2.25-.01-2.72-.01h0Z"/><path class="cls-2" d="m20,16.68c1.83,0,3.32,1.49,3.32,3.32s-1.49,3.32-3.32,3.32-3.32-1.49-3.32-3.32,1.49-3.32,3.32-3.32m0-1.78c-2.82,0-5.1,2.28-5.1,5.1s2.28,5.1,5.1,5.1,5.1-2.28,5.1-5.1-2.28-5.1-5.1-5.1h0Z"/><circle class="cls-2" cx="25.32" cy="14.68" r="1.2"/></g></svg>