<?xml version="1.0" encoding="UTF-8"?><svg id="_레이어_2" xmlns="http://www.w3.org/2000/svg" width="40" height="40" viewBox="0 0 40 40"><defs><style>.cls-1{fill:#fff;opacity:0;}.cls-2{fill:#141618;}</style></defs><g id="_레이어_1-2"><rect class="cls-1" width="40" height="40"/><path class="cls-2" d="m30.94,14.05c-.29-.63-.78-1.14-1.39-1.46-.76-.29-1.55-.45-2.36-.47-.8-.06-3.3-.21-7.18-.21s-6.38.15-7.18.21c-.81.02-1.61.18-2.36.47-.61.32-1.1.84-1.39,1.46-.25.56-.59,2.04-.59,5.95s.34,5.38.59,5.95c.29.63.78,1.14,1.39,1.46.76.29,1.55.45,2.36.47.8.06,3.3.21,7.18.21s6.38-.15,7.18-.21c.81-.02,1.61-.18,2.36-.47.61-.32,1.1-.83,1.39-1.46.25-.56.59-2.04.59-5.95s-.34-5.38-.59-5.95Zm-13.23,9.4v-6.91l5.98,3.46-5.98,3.46Z"/></g></svg>