<?xml version="1.0" encoding="UTF-8"?><svg id="_레이어_2" xmlns="http://www.w3.org/2000/svg" width="40" height="40" viewBox="0 0 40 40"><defs><style>.cls-1{fill:#fff;opacity:0;}.cls-2{fill:#141618;}</style></defs><g id="_레이어_1-2"><rect class="cls-1" width="40" height="40"/><path class="cls-2" d="m32.06,13.73c-1.22.54-2.52.68-2.52.68,1.68-1.07,1.93-2.45,1.93-2.45-1.31.81-2.42,1-2.85,1.05-.81-.83-1.94-1.35-3.19-1.35-2.46,0-4.45,1.99-4.45,4.45,0,.34.04.67.11.98-2.76-.16-4.62-.96-6.13-1.93-1.91-1.22-3.06-2.7-3.06-2.7,0,0-.57.69-.57,2.32,0,1.63,1.09,3.08,1.95,3.61,0,0-1.1-.03-2.01-.55,0,0-.05,1.48.94,2.77.99,1.29,2.38,1.59,2.6,1.63,0,0-.85.31-1.96.08,0,0,.25,1.09,1.45,2.13.89.77,2,.94,2.71.97-1.53,1.2-3.45,1.92-5.55,1.92-.35,0-.7-.02-1.05-.06,1.96,1.25,4.3,1.95,6.79,1.97,7.35.07,12.84-5.66,12.69-13.13,0-.04,0-.08,0-.12,1.31-.81,2.19-2.25,2.19-2.25Z"/></g></svg>