<?xml version="1.0" encoding="UTF-8"?><svg id="_레이어_2" xmlns="http://www.w3.org/2000/svg" width="40" height="40" viewBox="0 0 40 40"><defs><style>.cls-1,.cls-2{fill:#fff;}.cls-2{opacity:0;}</style></defs><g id="_레이어_1-2"><rect class="cls-2" width="40" height="40"/><path class="cls-1" d="m16.45,18.57c-1.04,0-1.89.95-1.89,2.12s.85,2.12,1.89,2.12,1.89-.95,1.89-2.12-.85-2.12-1.89-2.12Z"/><path class="cls-1" d="m23.55,18.57c-1.04,0-1.89.95-1.89,2.12s.85,2.12,1.89,2.12,1.89-.95,1.89-2.12-.85-2.12-1.89-2.12Z"/><path class="cls-1" d="m20,.5C9.23.5.5,9.23.5,20s8.73,19.5,19.5,19.5,19.5-8.73,19.5-19.5S30.77.5,20,.5Zm10.61,24.72s-2.43,1.95-5.39,2.78l-1.19-1.86s1.17-.43,1.82-.86l-.41-.41s-2.13,1.2-5.43,1.2-5.43-1.2-5.43-1.2l-.41.41c.65.42,1.82.86,1.82.86l-1.19,1.86c-2.95-.83-5.39-2.78-5.39-2.78,0,0-.35-2.66.34-5.73.69-3.08,2.57-5.93,2.87-6.33,0,0,1.72-.87,4.39-1.34l.57,1.15s1.53-.2,2.44-.2,2.44.2,2.44.2l.57-1.15c2.67.47,4.39,1.34,4.39,1.34.3.4,2.18,3.26,2.87,6.33.69,3.08.34,5.73.34,5.73Z"/></g></svg>