<?xml version="1.0" encoding="UTF-8"?><svg id="_레이어_2" xmlns="http://www.w3.org/2000/svg" width="40" height="40" viewBox="0 0 40 40"><defs><style>.cls-1,.cls-2{fill:#fff;}.cls-2{opacity:0;}</style></defs><g id="_레이어_1-2"><rect class="cls-2" width="40" height="40"/><path class="cls-1" d="m20,.5C9.23.5.5,9.23.5,20s8.73,19.5,19.5,19.5,19.5-8.73,19.5-19.5S30.77.5,20,.5Zm8.25,17.81c-1.68,0-3.24-.54-4.51-1.45v6.59c0,3.31-2.69,6-6,6s-6-2.69-6-6,2.69-6,6-6c.28,0,.55.02.81.06v3.31c-.26-.08-.53-.12-.81-.12-1.52,0-2.75,1.23-2.75,2.75s1.23,2.75,2.75,2.75,2.75-1.23,2.75-2.75v-12.9h3.22c0,2.5,2.03,4.53,4.53,4.53v3.22Z"/></g></svg>