<?xml version="1.0" encoding="UTF-8"?><svg id="_레이어_2" xmlns="http://www.w3.org/2000/svg" width="40" height="40" viewBox="0 0 40 40"><defs><style>.cls-1{fill-rule:evenodd;}.cls-1,.cls-2{fill:#fff;}.cls-2{opacity:0;}</style></defs><g id="_레이어_1-2"><rect class="cls-2" width="40" height="40"/><polygon class="cls-1" points="18.02 22.99 23.19 20 18.02 17.01 18.02 22.99"/><path class="cls-1" d="m20,.5C9.23.5.5,9.23.5,20s8.73,19.5,19.5,19.5,19.5-8.73,19.5-19.5S30.77.5,20,.5Zm9.44,24.63c-.25.54-.67.99-1.2,1.26-.65.25-1.34.39-2.04.41-.69.05-2.85.18-6.2.18s-5.51-.13-6.2-.18c-.7-.02-1.39-.16-2.04-.41-.53-.28-.95-.72-1.2-1.26-.22-.49-.51-1.76-.51-5.13s.29-4.65.51-5.13c.25-.54.67-.99,1.2-1.26.65-.25,1.34-.39,2.04-.41.69-.05,2.85-.18,6.2-.18s5.51.13,6.2.18c.7.02,1.39.16,2.04.41.53.28.95.72,1.2,1.26.22.49.51,1.76.51,5.13s-.29,4.65-.51,5.13Z"/></g></svg>