<?xml version="1.0" encoding="UTF-8"?><svg id="_레이어_2" xmlns="http://www.w3.org/2000/svg" width="40" height="40" viewBox="0 0 40 40"><defs><style>.cls-1{fill-rule:evenodd;}.cls-1,.cls-2{fill:#fff;}.cls-2{opacity:0;}</style></defs><g id="_레이어_1-2"><rect class="cls-2" width="40" height="40"/><path class="cls-1" d="m26.82,19.26h-.98v2.73c0,.34-.02.68-.07,1.01h1.05c1.03,0,1.87-.84,1.87-1.87s-.84-1.87-1.87-1.87Z"/><path class="cls-1" d="m20,.5C9.23.5.5,9.23.5,20s8.73,19.5,19.5,19.5,19.5-8.73,19.5-19.5S30.77.5,20,.5Zm-.18,10.94h4.22c0,2.39-2.05,4.33-4.59,4.33h-4.22c0-2.39,2.06-4.33,4.59-4.33Zm7.01,13h-1.42c-1,2.66-3.56,4.55-6.57,4.55-3.87,0-7.01-3.14-7.01-7.01v-4.17h14.99c1.83,0,3.32,1.48,3.32,3.32s-1.48,3.32-3.32,3.32Z"/></g></svg>