<?xml version="1.0" encoding="UTF-8"?><svg id="_레이어_2" xmlns="http://www.w3.org/2000/svg" width="40" height="40" viewBox="0 0 40 40"><defs><style>.cls-1{fill-rule:evenodd;}.cls-1,.cls-2{fill:#fff;}.cls-2{opacity:0;}</style></defs><g id="_레이어_1-2"><rect class="cls-2" width="40" height="40"/><path class="cls-1" d="m20,.5C9.23.5.5,9.23.5,20s8.73,19.5,19.5,19.5,19.5-8.73,19.5-19.5S30.77.5,20,.5Zm0,25.71c-.52,0-1.05-.04-1.56-.11l-3.55,2.43c-.05.04-.12.05-.18.03-.12-.03-.19-.15-.16-.28l.79-3.15c-2.33-1.01-3.89-3.25-4.02-5.79,0-3.79,3.89-6.86,8.7-6.86h0c4.8,0,8.7,3.07,8.7,6.86s-3.89,6.86-8.7,6.86Z"/></g></svg>