<?xml version="1.0" encoding="UTF-8"?><svg id="_레이어_2" xmlns="http://www.w3.org/2000/svg" width="40" height="40" viewBox="0 0 40 40"><defs><style>.cls-1{fill-rule:evenodd;}.cls-1,.cls-2{fill:#fff;}.cls-2{opacity:0;}</style></defs><g id="_레이어_1-2"><rect class="cls-2" width="40" height="40"/><path class="cls-1" d="m20,.5C9.23.5.5,9.23.5,20s8.73,19.5,19.5,19.5,19.5-8.73,19.5-19.5S30.77.5,20,.5Zm8.6,16s0,.07,0,.1c.14,6.5-4.65,11.5-11.06,11.44-2.18-.02-4.21-.63-5.92-1.72.3.03.6.05.91.05,1.82,0,3.5-.62,4.83-1.67-.61-.03-1.58-.17-2.36-.84-1.04-.9-1.26-1.85-1.26-1.85.97.2,1.71-.07,1.71-.07-.19-.03-1.4-.29-2.26-1.42-.86-1.13-.82-2.41-.82-2.41.79.45,1.75.48,1.75.48-.75-.46-1.71-1.72-1.7-3.14,0-1.42.5-2.02.5-2.02,0,0,1,1.28,2.67,2.35,1.32.85,2.94,1.55,5.35,1.68-.06-.28-.1-.56-.1-.86,0-2.14,1.73-3.87,3.87-3.87,1.09,0,2.07.45,2.78,1.18.37-.04,1.34-.21,2.48-.91,0,0-.21,1.2-1.68,2.13,0,0,1.14-.12,2.2-.59,0,0-.76,1.26-1.91,1.96Z"/></g></svg>