<?xml version="1.0" encoding="UTF-8"?><svg id="_레이어_2" xmlns="http://www.w3.org/2000/svg" width="40" height="40" viewBox="0 0 40 40"><defs><style>.cls-1{fill-rule:evenodd;}.cls-1,.cls-2{fill:#fff;}.cls-2{opacity:0;}</style></defs><g id="_레이어_1-2"><rect class="cls-2" width="40" height="40"/><path class="cls-1" d="m20,.5C9.23.5.5,9.23.5,20s8.73,19.5,19.5,19.5,19.5-8.73,19.5-19.5S30.77.5,20,.5Zm4.45,13.19h-1.17c-.95,0-1.29.14-1.59.49-.25.29-.3.78-.3,1.52v1.69h2.97l-.5,3.02h-2.47v8.94h-3.67v-8.94h-2.78v-3.02h2.78v-1.45c0-1.71-.02-2.24.35-3.06.4-.89,1.24-1.62,2.22-1.97,1.14-.41,2.91-.22,4.16-.04v2.84Z"/></g></svg>