<?xml version="1.0" encoding="UTF-8"?><svg id="_레이어_2" xmlns="http://www.w3.org/2000/svg" width="40" height="40" viewBox="0 0 40 40"><defs><style>.cls-1{fill-rule:evenodd;}.cls-1,.cls-2{fill:#fff;}.cls-2{opacity:0;}</style></defs><g id="_레이어_1-2"><rect class="cls-2" width="40" height="40"/><path class="cls-1" d="m29.67,18.27c-.93,0-1.68.73-1.68,1.63s.75,1.63,1.68,1.63,1.68-.73,1.68-1.63-.75-1.63-1.68-1.63Z"/><path class="cls-1" d="m20,.5C9.23.5.5,9.23.5,20s8.73,19.5,19.5,19.5,19.5-8.73,19.5-19.5S30.77.5,20,.5Zm-9.28,23c-.74,0-1.42-.29-1.96-.76v.56h-1.96v-8.75h1.96v2.77c.54-.48,1.22-.76,1.96-.76,1.73,0,3.14,1.55,3.14,3.47s-1.4,3.47-3.14,3.47Zm6.35-.2h-1.96v-6.01c0-.62-.48-1.13-1.08-1.17v-1.82c1.68,0,3.05,1.36,3.05,3.05v5.96Zm4.63.18c-1.91,0-3.46-1.55-3.46-3.46s1.55-3.46,3.46-3.46,3.46,1.55,3.46,3.46-1.55,3.46-3.46,3.46Zm11.51-.54c0,1.74-1.41,3.16-3.16,3.16h-.33v-1.73h.27c.7,0,1.26-.57,1.26-1.26v-.62c-.54.47-1.24.76-2,.76-1.74,0-3.15-1.49-3.15-3.33s1.41-3.33,3.15-3.33c.76,0,1.45.28,2,.76v-.59h1.96v6.21Z"/><path class="cls-1" d="m10.33,18.35c-.93,0-1.68.76-1.68,1.69s.75,1.69,1.68,1.69,1.68-.76,1.68-1.69-.75-1.69-1.68-1.69Z"/><path class="cls-1" d="m21.7,18.39c-.9,0-1.63.73-1.63,1.63s.73,1.63,1.63,1.63,1.64-.73,1.64-1.63-.73-1.63-1.64-1.63Z"/></g></svg>