<?xml version="1.0" encoding="UTF-8"?><svg id="_레이어_2" xmlns="http://www.w3.org/2000/svg" width="40" height="40" viewBox="0 0 40 40"><defs><style>.cls-1{fill:#f9e000;}.cls-2{fill:#3c1e1e;}</style></defs><g id="_레이어_1-2"><rect class="cls-1" width="40" height="40"/><polygon class="cls-2" points="17.22 20.71 18.76 20.71 17.99 18.54 17.22 20.71"/><path class="cls-2" d="m20.46,10.57h0c-6.44,0-11.67,4.12-11.67,9.21.17,3.41,2.27,6.42,5.4,7.77l-1.06,4.22c-.04.16.06.33.22.37.09.02.18,0,.25-.04l4.76-3.26c.7.1,1.4.15,2.1.15,6.44,0,11.67-4.12,11.67-9.21s-5.23-9.21-11.67-9.21Zm-5.76,11.74c0,.34-.27.61-.61.61s-.61-.27-.61-.61v-4h-1.06c-.32,0-.57-.26-.57-.57s.26-.57.57-.57h3.34c.32,0,.57.26.57.57s-.26.57-.57.57h-1.06v4Zm5.43.56c-.29.11-.62-.04-.73-.34l-.29-.81h-2.26l-.29.81c-.11.29-.43.45-.73.34-.29-.11-.45-.43-.34-.73l1.63-4.44s.19-.62.86-.62.86.62.86.62l1.63,4.44c.11.29-.04.62-.34.73Zm3.47.01l-2.18.04c-.34,0-.61-.27-.61-.61v-4.59c0-.34.27-.61.61-.61s.61.27.61.61v4.12h1.57c.29,0,.52.23.52.52s-.23.52-.52.52Zm4.92-.08c-.24.19-.59.14-.78-.1l-1.66-2.16-.34.34v1.42c0,.34-.27.61-.61.61s-.61-.27-.61-.61v-4.59c0-.34.27-.61.61-.61s.61.27.61.61v1.6l1.94-1.93c.22-.22.57-.22.79,0,.22.22.22.57,0,.79l-1.59,1.58,1.75,2.27c.19.24.14.59-.1.78Z"/></g></svg>