<?xml version="1.0" encoding="UTF-8"?><svg id="_레이어_2" xmlns="http://www.w3.org/2000/svg" width="40" height="40" viewBox="0 0 40 40"><defs><style>.cls-1,.cls-2{fill:#fff;}.cls-2{opacity:0;}.cls-3{fill:#141618;}</style></defs><g id="_레이어_1-2"><rect class="cls-2" width="40" height="40"/><path class="cls-1" d="m6.61,27.61l-2.46,5.53c-.17.37-.16.74.01,1.01.17.27.51.42.92.42h29.85c.41,0,.74-.15.92-.42.17-.27.18-.63.01-1.01l-2.46-5.53c-.35-.78-1.31-1.52-2.15-1.65l-6.44-1.01v-2.53l.09-.12c.64-.79,1.11-1.69,1.4-2.69l.08-.29h.3c.31-.03.59-.17.83-.42.28-.29.45-.7.49-1.15,0-.02,0-.04,0-.06v-.14s.06-.09.06-.09c.97-1.67,1.02-3.17.79-4.89-.51-3.93-4.26-6.37-7.52-6.98-.55-.1-1.07-.15-1.57-.15-1.69,0-3.05.57-3.72,1.61l-.11.18-.21.02c-1.62.12-2.96.99-3.77,2.45-1.17,2.11-1.15,5.19.06,7.32l.07.13-.02.14c-.03.16-.03.33-.02.49.04.45.21.85.49,1.15.22.24.49.38.77.41l.28.03.08.27c.29,1.02.8,1.97,1.46,2.76l.1.12v2.46l-6.44,1.01c-.84.13-1.81.87-2.15,1.65Z"/><circle class="cls-3" cx="17.43" cy="16.65" r=".5"/><circle class="cls-3" cx="22.51" cy="16.65" r=".5"/><path class="cls-3" d="m17.88,20.83c-.21-.11-.48-.04-.59.17-.12.21-.04.48.17.6.04.02.91.49,2.51.49s2.51-.46,2.55-.48c.22-.11.3-.38.19-.59-.11-.22-.38-.3-.59-.19,0,0-.79.39-2.15.39s-2.07-.37-2.09-.38Z"/><path class="cls-3" d="m36.24,32.97l-2.46-5.53c-.4-.91-1.49-1.74-2.47-1.89l-6.08-.95v-2.01c.66-.81,1.17-1.78,1.48-2.84.41-.02.8-.21,1.12-.54.34-.36.56-.86.6-1.4,0-.04,0-.08,0-.12,1.03-1.77,1.08-3.35.85-5.16-.54-4.14-4.46-6.71-7.86-7.34-2.59-.48-4.75.14-5.72,1.64-1.77.13-3.22,1.07-4.11,2.67-1.24,2.24-1.22,5.48.06,7.73-.03.19-.04.39-.02.59.05.54.26,1.04.6,1.4.29.31.65.49,1.03.54.32,1.1.85,2.09,1.54,2.92v1.94l-6.08.95c-.98.15-2.07.99-2.47,1.89l-2.46,5.53c-.23.51-.21,1.02.04,1.41.25.39.72.61,1.27.61h29.85c.55,0,1.02-.22,1.27-.61.25-.39.27-.9.04-1.41Zm-22.44-15.58c0-.24-.2-.44-.44-.44s-.44.2-.44.44c0,.46.04.91.11,1.34-.06-.04-.12-.09-.18-.14-.21-.22-.34-.53-.37-.87-.06-.66.29-1.25.77-1.29.01,0,.02,0,.03,0,.15.03.31-.03.41-.15.72-.89,2.89-3.96,3.73-5.15.65.73,2.12,2.21,4.28,3.45-.17.09-.27.29-.23.49.05.2.23.34.43.34.03,0,.06,0,.1-.01l.88-.2c1.14.54,2.42.99,3.85,1.24,0,0,.01,0,.02,0,0,0,.01,0,.02,0,.47.04.83.63.77,1.29-.03.34-.16.65-.37.87-.08.09-.17.15-.27.2.08-.45.12-.92.12-1.4,0-.24-.2-.44-.44-.44s-.44.2-.44.44c0,3.8-2.77,6.89-6.17,6.89s-6.17-3.09-6.17-6.89Zm10.54,6.09v1.29l-4.4,4.16-4.27-4.16v-1.25c1.19,1.02,2.69,1.63,4.31,1.63s3.16-.63,4.37-1.68Zm-8.13,10.63l-1.98-8.55.84-.13,4.55,4.43c.09.08.2.12.31.12s.22-.04.3-.12l4.69-4.44.85.13-1.98,8.55h-7.58Z"/><path class="cls-3" d="m18.01,15.4c.2,0,.38-.14.43-.34.05-.24-.09-.47-.33-.52l-2.15-.49c-.24-.05-.47.09-.52.33-.05.24.09.47.33.52l2.15.49s.07.01.1.01Z"/><path class="cls-3" d="m19.99,20.01s.02,0,.02,0c.43-.01.71-.42.93-.8.12-.21.05-.48-.16-.6-.21-.12-.48-.05-.6.16-.1.17-.17.26-.21.32-.05-.06-.14-.16-.26-.34-.14-.2-.41-.25-.61-.12-.2.14-.25.41-.12.61.27.39.57.78.99.78Z"/></g></svg>