<?xml version="1.0" encoding="UTF-8"?><svg id="_레이어_2" xmlns="http://www.w3.org/2000/svg" width="40" height="40" viewBox="0 0 40 40"><defs><style>.cls-1,.cls-2{fill:#fff;}.cls-2{opacity:0;}.cls-3{fill:#141618;}</style></defs><g id="_레이어_1-2"><rect class="cls-2" width="40" height="40"/><path class="cls-1" d="m36.29,35.67c.41,0,.74-.15.91-.42.17-.27.18-.63.01-1.01l-2.46-5.53c-.35-.78-1.31-1.52-2.15-1.65l-6.08-.95c-.21-.03-.36-.21-.36-.42v-2.01c0-.1.03-.19.09-.27.64-.79,1.11-1.69,1.4-2.69.05-.17.2-.3.38-.3.31-.02.59-.16.83-.41.28-.29.45-.7.49-1.14.04-.45-.07-.89-.3-1.23-.09-.13-.1-.3-.03-.43,1.78-3.4,2.35-6.68,1.74-10.04,0,0,0,0,0-.01,0,0,0,0-.01,0-.64.14-1.16.05-1.57-.27-.46-.37-.71-1.03-.71-1.85,0,0,0-.01-.01-.02,0,0-.01,0-.02,0-.63.63-1.44.85-2.2.6-.89-.29-1.55-1.15-1.71-2.24,0,0,0-.01-.01-.01,0,0-.01,0-.02,0-1.43,1.59-3.08,1.9-4.66,2.2-1.77.33-3.44.64-4.97,2.51-1.12,1.4-1.94,3.04-2.29,4.61-.45,1.98-.2,3.83.73,5.48v.02c.08.09.12.19.11.3-.01.13-.01.25,0,.37.04.45.21.85.49,1.15.22.24.49.38.77.41.17.02.31.14.36.3.29,1.02.8,1.97,1.46,2.76.06.08.1.17.1.27v1.94c0,.21-.15.38-.36.42l-4.09.64c-.22.03-.43-.11-.48-.32-.04-.16-.09-.31-.18-.45l-.14-.25s0,0,0-.01l-.11-.2c-.05-.09-.06-.2-.04-.31l.95-3.53c.07-.24.03-.5-.09-.72-.13-.22-.33-.38-.57-.44-.5-.13-1.02.17-1.16.67l-.24.9c-.04.16-.18.29-.35.31-.17.02-.34-.06-.42-.21l-2.23-3.86c-.13-.22-.33-.38-.57-.44-.24-.07-.5-.03-.72.09-.22.13-.38.33-.44.57-.07.24-.03.5.09.72l1.59,2.76c.07.12.08.27.01.4-.06.13-.18.21-.32.23-.12.02-.24.06-.35.12-.22.13-.38.33-.44.57,0,.01,0,.02,0,.03-.05.22-.26.36-.48.32-.22-.03-.43,0-.62.11-.22.13-.38.33-.44.57-.02.08-.03.17-.03.26,0,.23-.18.42-.42.43-.16,0-.32.04-.46.13-.45.26-.61.84-.35,1.29l.71,1.22c.03.06.08.12.12.17.02.02.04.05.05.07l1.01,1.74c.06.1.13.2.22.29.11.12.15.3.08.46-.07.15-.22.25-.39.25h-.13s-.02,0-.02.02v5.9s0,.02.02.02h7.5s.02,0,.02-.02v-.53c0-.23.19-.42.42-.42h23.57Z"/><path class="cls-3" d="m20.03,14.08c-.99-.51-2.15-.48-3.04.09-.2.13-.26.4-.13.61.08.13.23.2.37.2.08,0,.16-.02.24-.07.62-.39,1.46-.41,2.16-.05.21.11.48.03.59-.19.11-.22.03-.48-.19-.59Z"/><path class="cls-3" d="m25.88,14.78c.13-.2.07-.48-.13-.61-.89-.56-2.05-.6-3.04-.09-.22.11-.3.38-.19.59.11.21.38.3.59.19.7-.36,1.55-.34,2.16.05.07.05.15.07.23.07.14,0,.29-.07.37-.2Z"/><path class="cls-3" d="m23.21,17.36c.1.22.36.32.58.22.16-.07.39-.08.5,0,.07.05.15.07.23.07.14,0,.29-.07.37-.2.13-.2.07-.48-.13-.61-.42-.27-.97-.22-1.34-.05-.22.1-.32.36-.22.58Z"/><path class="cls-3" d="m17.84,16.72c-.2.13-.26.4-.13.61.08.13.23.2.37.2.08,0,.16-.02.24-.07.11-.07.34-.07.5,0,.22.1.48,0,.58-.22.1-.22,0-.48-.22-.58-.36-.17-.92-.21-1.34.05Z"/><path class="cls-3" d="m20.73,19.85c.17.04.38.08.6.08.24,0,.5-.05.72-.17.21-.12.28-.39.16-.6-.12-.21-.39-.28-.6-.16-.12.07-.38.07-.67,0-.24-.06-.47.08-.53.32-.06.24.08.47.32.53Z"/><path class="cls-3" d="m18.83,22.7s.91.49,2.51.49,2.51-.46,2.55-.48c.22-.11.3-.38.19-.59-.11-.22-.38-.3-.59-.19,0,0-.79.39-2.15.39s-2.07-.37-2.09-.38c-.21-.11-.48-.04-.59.17-.12.21-.04.48.17.6Z"/><path class="cls-3" d="m32.97,28.61h-8.96c-.24,0-.44.2-.44.44s.2.44.44.44h8.96c.24,0,.44-.2.44-.44s-.2-.44-.44-.44Z"/><path class="cls-3" d="m26.64,27.78h1.57c.24,0,.44-.2.44-.44s-.2-.44-.44-.44h-1.57c-.24,0-.44.2-.44.44s.2.44.44.44Z"/><path class="cls-3" d="m15.76,26.9h-1.36c-.24,0-.44.2-.44.44s.2.44.44.44h1.36c.24,0,.44-.2.44-.44s-.2-.44-.44-.44Z"/><path class="cls-3" d="m11.03,34.18h-5.05c-.24,0-.44.2-.44.44s.2.44.44.44h5.05c.24,0,.44-.2.44-.44s-.2-.44-.44-.44Z"/><path class="cls-3" d="m11.03,32.47h-5.05c-.24,0-.44.2-.44.44s.2.44.44.44h5.05c.24,0,.44-.2.44-.44s-.2-.44-.44-.44Z"/><path class="cls-3" d="m37.61,34.07l-2.46-5.53c-.4-.91-1.49-1.74-2.47-1.9l-6.08-.95v-2.01c.66-.81,1.17-1.78,1.48-2.84.41-.02.8-.21,1.12-.54.34-.36.56-.86.6-1.4.05-.57-.1-1.1-.37-1.51,1.82-3.48,2.41-6.86,1.78-10.31-.02-.12-.09-.22-.19-.29-.1-.07-.22-.09-.34-.06-.5.11-.91.05-1.21-.19-.36-.29-.56-.83-.56-1.52,0-.18-.11-.34-.27-.41-.16-.07-.35-.03-.48.1-.52.52-1.15.7-1.77.5-.74-.24-1.29-.97-1.43-1.9-.03-.17-.15-.31-.31-.35-.16-.05-.34,0-.45.13-1.34,1.49-2.84,1.77-4.43,2.07-1.77.33-3.59.67-5.22,2.66-1.16,1.45-2.01,3.15-2.38,4.79-.48,2.09-.21,4.05.79,5.8.01.02.03.04.04.06-.01.14-.01.29,0,.44.05.54.26,1.04.6,1.4.29.31.65.49,1.03.54.31,1.1.85,2.09,1.54,2.92v1.94l-4.09.64c-.04-.2-.12-.39-.22-.57l-.14-.25-.11-.2.95-3.53h0c.09-.35.05-.72-.14-1.04-.18-.32-.48-.54-.83-.64-.73-.19-1.48.24-1.68.97l-.24.9-2.23-3.86c-.18-.32-.48-.54-.83-.64-.35-.09-.72-.05-1.04.14-.32.18-.54.48-.64.83-.09.35-.05.72.14,1.04l1.59,2.76c-.18.02-.35.08-.51.17-.32.18-.54.48-.64.83,0,.02,0,.03-.01.05-.3-.05-.61,0-.89.17-.32.18-.54.48-.64.83-.03.12-.05.25-.05.37-.23,0-.46.06-.66.18-.65.38-.88,1.22-.5,1.87l.71,1.22c.05.09.11.17.18.24l1.01,1.74c.08.14.17.26.28.37h-.13c-.24,0-.44.2-.44.44v5.9c0,.24.2.44.44.44h7.5c.24,0,.44-.2.44-.44v-.53h23.57c.55,0,1.02-.22,1.27-.61.25-.39.27-.9.04-1.41Zm-13.54-19.25c-1.16,0-2.13.84-2.33,1.94h-.85c-.16-1.15-1.15-2.05-2.35-2.05s-2.19.89-2.35,2.05h-.91c.44-3.55,2.36-5.16,6.07-5.16s5.63,1.61,6.07,5.16h-1.01c-.21-1.1-1.17-1.94-2.33-1.94Zm1.5,2.38c0,.83-.67,1.5-1.5,1.5s-1.5-.67-1.5-1.5.67-1.5,1.5-1.5,1.5.67,1.5,1.5Zm-5.54-.11c0,.83-.67,1.5-1.5,1.5s-1.5-.67-1.5-1.5.67-1.5,1.5-1.5,1.5.67,1.5,1.5Zm8.88,1.73c-.03.34-.16.65-.37.87-.08.09-.18.15-.27.2.07-.45.12-.92.12-1.4,0-.31,0-.61-.02-.9.36.17.59.68.55,1.23Zm-1.72-8.85c.38-.18.73-.78.73-1.25,0-.24.2-.44.44-.44s.44.2.44.44c0,.81-.56,1.72-1.24,2.04-.06.03-.12.04-.19.04-.17,0-.32-.09-.4-.25-.1-.22,0-.48.21-.58Zm-1.62-2.05c.12-.21.39-.29.6-.17.21.12.29.39.17.6-.07.12-.13.25-.2.39-.24.52-.55,1.16-1.29,1.42-.05.02-.1.02-.14.02-.18,0-.35-.11-.41-.29-.08-.23.04-.48.27-.56.39-.14.57-.52.78-.96.07-.15.14-.3.22-.45Zm-11.35,11.77c-.21-.22-.34-.53-.37-.87-.04-.5.15-.97.46-1.18-.01.28-.02.56-.02.85,0,.46.04.91.11,1.34-.06-.04-.12-.09-.18-.14Zm.94-1.2c0-.29,0-.58.02-.85h1.03c.25,1.05,1.19,1.83,2.31,1.83s2.06-.78,2.31-1.83h.89c.21,1.1,1.17,1.94,2.33,1.94s2.13-.84,2.33-1.94h1.09c.01.27.02.56.02.85,0,3.8-2.77,6.89-6.17,6.89s-6.17-3.09-6.17-6.89Zm10.54,6.09v1.39c-.16.33-1.08,1.82-4.41,1.82s-4.14-1.51-4.27-1.81v-1.35c1.19,1.02,2.69,1.63,4.31,1.63s3.16-.63,4.37-1.68Zm-19.06-1.37c.07-.04.16-.07.24-.07.07,0,.14.02.21.05.06.04.12.1.16.16l.97,1.68c.14.23.05.54-.18.67-.23.13-.53.05-.67-.18l-.68-1.17-.12-.21c0-.05-.02-.11-.05-.16l-.06-.11c-.14-.23-.05-.53.18-.67Zm-1.77,1.34c.03-.13.11-.23.23-.3.15-.08.32-.08.46-.02.06.04.11.09.15.16l.71,1.23.19.33s0,0,0,0l.07.11c.07.11.08.25.05.37-.03.13-.12.23-.23.3,0,0,0,0,0,0-.11.07-.25.08-.37.05-.13-.03-.23-.11-.3-.23,0,0,0,0,0,0l-.23-.4-.36-.62c0-.06-.03-.11-.05-.16h0s0,0,0,0l-.26-.45c-.07-.11-.08-.25-.05-.37Zm-.53,3.08l-.73-1.27-.03-.06c-.07-.11-.08-.25-.05-.37.03-.13.12-.23.23-.3.08-.04.16-.07.24-.07.04,0,.09,0,.13.02.03,0,.06.02.08.03.06.04.12.1.16.16l.71,1.22c.14.23.05.53-.18.67-.18.1-.4.08-.55-.04Zm.56.96c.15-.03.3-.08.43-.16,0,0,0,0,0,0,.31-.18.52-.46.62-.78.1.02.2.04.31.04.24,0,.47-.06.68-.18.2-.11.36-.27.47-.46l.58,1.01c.08.14.23.22.38.22.07,0,.15-.02.22-.06.21-.12.28-.39.16-.6l-.59-1.03c.11-.03.22-.07.32-.13,0,0,0,0,0,0,.62-.36.85-1.13.55-1.76l.6-.35c.21-.12.28-.39.16-.6-.12-.21-.39-.28-.6-.16l-.59.34-.48-.82c0-.06-.03-.11-.05-.16,0,0,0,0,0,0l-2.25-3.9c-.07-.11-.08-.25-.05-.37.03-.13.11-.23.23-.3.11-.07.25-.08.37-.05.13.03.23.11.3.23l2.76,4.78c.09.15.26.24.44.22s.32-.15.37-.32l.51-1.92c.07-.26.34-.42.6-.35.13.03.23.11.3.23.07.11.08.25.05.37l-.99,3.7c-.03.11-.02.22.04.32l.19.36s0,0,0,.01l.15.26c.15.27.2.58.11.88-.08.3-.27.54-.54.7l-3.68,2.12c-.27.15-.58.19-.88.12-.3-.08-.55-.27-.7-.54l-.51-.88Zm6.28-.11v1.8h-3.11l3.03-1.75s.05-.03.08-.05Zm.67,7.7h-6.62v-5.02h.76s0,0,0,0h5.63s0,0,0,0h.23v5.02Zm24.98-1.18c-.09.13-.28.21-.53.21H12.73v-.6h22.32c.24,0,.44-.2.44-.44s-.2-.44-.44-.44H12.73v-.83h21.55c.24,0,.44-.2.44-.44s-.2-.44-.44-.44H12.73v-.83h20.89c.24,0,.44-.2.44-.44s-.2-.44-.44-.44H12.45c-.05-.02-.1-.03-.16-.03h-.23v-.8h6.34c.24,0,.44-.2.44-.44s-.2-.44-.44-.44h-6.34v-1.36s0-.02,0-.03l4.27-.67c.39.69,1.6,2.12,4.96,2.12s4.68-1.45,5.09-2.13l6.14.96c.68.11,1.53.75,1.81,1.39l2.46,5.53c.1.23.11.44.02.57Z"/></g></svg>