<?xml version="1.0" encoding="UTF-8"?><svg id="_레이어_2" xmlns="http://www.w3.org/2000/svg" width="40" height="40" viewBox="0 0 40 40"><defs><style>.cls-1,.cls-2{fill:#fff;}.cls-2{opacity:0;}.cls-3{fill:#141618;}</style></defs><g id="_레이어_1-2"><rect class="cls-2" width="40" height="40"/><path class="cls-1" d="m6.61,27.51l-2.46,5.53c-.17.37-.16.74.01,1.01.17.27.51.42.91.42h29.85c.41,0,.74-.15.92-.42.17-.27.18-.63.01-1.01l-2.46-5.53c-.35-.78-1.31-1.51-2.16-1.63l-3-.43v-.36c0-.75.07-1.48.24-2.23.91-4.08.94-10.1-.57-13.12-1.51-3.02-5.26-4.57-7.82-4.12h-.07s-.07,0-.07,0c-.34-.06-.69-.09-1.06-.09-2.53,0-5.55,1.45-6.77,4.21-1.28,2.9-1.53,8.79-.57,13.12.16.74.24,1.47.24,2.23v.36s-3,.43-3,.43c-.84.12-1.81.85-2.16,1.63Z"/><path class="cls-3" d="m36.24,32.87l-2.46-5.53c-.41-.91-1.5-1.73-2.48-1.88l-2.64-.38c0-.64.05-1.33.23-2.14.92-4.15.95-10.29-.61-13.4-1.61-3.21-5.55-4.82-8.27-4.34-2.85-.51-6.8.99-8.28,4.36-1.31,2.97-1.57,8.97-.6,13.38.16.73.23,1.42.23,2.14l-2.64.38c-.99.14-2.08.96-2.48,1.88l-2.46,5.53c-.23.51-.21,1.02.04,1.41.25.39.71.61,1.27.61h29.85c.55,0,1.02-.22,1.27-.61.25-.39.27-.9.04-1.41Zm-19.81-7.98s0-.02,0-.03v-.86c1.04.67,2.25,1.05,3.54,1.05s2.54-.4,3.6-1.09v.89h0c0,.07-.11,1.74-3.64,1.74-1.86,0-2.72-.47-3.1-.87-.4-.41-.4-.82-.4-.83Zm3.54-.71c-3.4,0-6.17-3.09-6.17-6.89,0,0,0,0,0,0,0-.22,0-.44.01-.65.01-.32.03-.62.06-.9h2.18c.16,0,.31-.09.38-.23.07.14.22.23.38.23h6.26c.17,0,.31-.09.38-.23.08.14.22.23.38.23h2.21c.03.28.05.58.06.9,0,.22.01.43.01.65,0,0,0,0,0,0,0,3.8-2.77,6.89-6.17,6.89Zm-7.45-14.26c1.32-3,4.87-4.33,7.4-3.84,0,0,.02,0,.03,0,.02,0,.04,0,.06,0,.02,0,.03,0,.05,0,.01,0,.02,0,.03,0,2.36-.46,5.98,1.01,7.4,3.86,1.45,2.89,1.4,8.9.53,12.81-.23,1.05-.28,1.94-.24,2.74,0,0,0,0,0,0,.02.57.09,1.09.15,1.58.19,1.53.34,2.75-.91,4.55h-1.97c-.17-1.15-.25-2.41-.32-3.62-.07-1.18-.14-2.3-.29-3.17v-1.54c.86-.78,1.55-1.79,2-2.94,0,0,.02,0,.03,0,.41,0,.81-.17,1.14-.48.36-.34.6-.83.68-1.36.15-1.09-.43-2.08-1.31-2.29-.01-.16-.02-.32-.04-.47h.04c.13,0,.25-.06.33-.15.08-.1.12-.22.1-.35l-.44-2.92c-.04-.24-.26-.4-.5-.37-.24.04-.4.26-.37.5l.36,2.42h-2.28l-.68-2.6c-.06-.21-.26-.35-.48-.32-.22.03-.38.21-.38.44v2.49h-5.39v-2.49c0-.22-.16-.41-.38-.44-.22-.03-.42.11-.48.32l-.68,2.6h-2.28l.36-2.42c.04-.24-.13-.46-.37-.5-.24-.04-.46.13-.5.37l-.44,2.92c-.02.13.02.25.1.35.08.1.2.15.33.15h.07c-.02.16-.03.32-.04.49-.83.25-1.37,1.22-1.22,2.27.08.54.32,1.02.68,1.36.32.3.69.47,1.08.48.46,1.17,1.17,2.2,2.06,2.99v1.49c-.15.87-.22,1.99-.29,3.17-.07,1.22-.15,2.48-.32,3.63h-1.97c-1.25-1.8-1.1-3.02-.91-4.55.06-.5.12-1.01.15-1.58,0,0,0,0,0,0,0,0,0,0,0,0,.04-.94-.04-1.81-.24-2.73-.94-4.25-.7-10.01.54-12.83Zm14.5,7.37s0-.08,0-.12c.3.22.48.7.41,1.21-.05.34-.19.64-.41.85-.08.08-.17.14-.26.18.17-.67.27-1.38.27-2.12,0,0,0,0,0,0Zm-13.84,2.07c-.06-.03-.11-.08-.16-.13-.22-.21-.36-.51-.41-.85-.06-.46.07-.89.32-1.14,0,.01,0,.03,0,.04,0,0,0,0,0,0,0,.72.09,1.41.26,2.07Z"/><path class="cls-3" d="m19.46,19.41c.07,0,.15-.02.22-.06.12-.07.38-.07.67,0,.23.06.47-.08.53-.32.06-.23-.08-.47-.32-.53-.37-.09-.9-.15-1.32.09-.21.12-.28.39-.16.6.08.14.23.22.38.22Z"/><path class="cls-3" d="m22.02,20.75c-.19-.13-.44-.09-.59.08-.04.03-.37.28-1.46.28s-1.35-.22-1.4-.26c-.13-.18-.37-.23-.57-.12-.21.12-.29.39-.17.6.11.2.54.66,2.13.66s2.06-.48,2.16-.63c.14-.2.09-.47-.11-.61Z"/><circle class="cls-3" cx="17.32" cy="16.77" r=".5"/><circle class="cls-3" cx="22.62" cy="16.77" r=".5"/></g></svg>