<?xml version="1.0" encoding="UTF-8"?><svg id="_레이어_2" xmlns="http://www.w3.org/2000/svg" width="39" height="39" viewBox="0 0 39 39"><defs><style>.cls-1{fill:#fff;}.cls-2{fill:#141618;}</style></defs><g id="_레이어_1-2"><circle class="cls-1" cx="19.5" cy="19.5" r="19.5"/><path class="cls-2" d="m30.01,14.04c-1.06.47-2.2.59-2.2.59,1.47-.94,1.68-2.13,1.68-2.13-1.14.71-2.11.87-2.48.91-.7-.73-1.69-1.18-2.78-1.18-2.14,0-3.87,1.73-3.87,3.87,0,.29.03.58.1.86-2.4-.14-4.02-.84-5.35-1.68-1.67-1.07-2.67-2.35-2.67-2.35,0,0-.49.6-.5,2.02,0,1.42.95,2.68,1.7,3.14,0,0-.96-.03-1.75-.48,0,0-.04,1.29.82,2.41.86,1.13,2.07,1.39,2.26,1.42,0,0-.74.27-1.71.07,0,0,.22.95,1.26,1.85.77.67,1.74.82,2.36.84-1.33,1.05-3.01,1.67-4.83,1.67-.31,0-.61-.02-.91-.05,1.71,1.09,3.74,1.7,5.92,1.72,6.41.06,11.19-4.94,11.06-11.44,0-.03,0-.07,0-.1,1.14-.7,1.91-1.96,1.91-1.96Z"/></g></svg>