<?xml version="1.0" encoding="UTF-8"?><svg id="_레이어_2" xmlns="http://www.w3.org/2000/svg" width="39" height="39" viewBox="0 0 39 39"><defs><style>.cls-1{fill:#fff;}.cls-2{fill:#141618;}</style></defs><g id="_레이어_1-2"><circle class="cls-1" cx="19.5" cy="19.5" r="19.5"/><path class="cls-2" d="m23.22,10.05h-3.22v12.9c0,1.52-1.23,2.75-2.75,2.75s-2.75-1.23-2.75-2.75,1.23-2.75,2.75-2.75c.28,0,.56.04.81.12v-3.31c-.27-.04-.54-.06-.81-.06-3.31,0-6,2.69-6,6s2.69,6,6,6,6-2.69,6-6v-6.59c1.27.91,2.83,1.45,4.51,1.45v-3.22c-2.5,0-4.53-2.03-4.53-4.53Z"/></g></svg>