<?xml version="1.0" encoding="UTF-8"?><svg id="_레이어_2" xmlns="http://www.w3.org/2000/svg" width="40" height="40" viewBox="0 0 40 40"><defs><style>.cls-1,.cls-2{fill:#fff;}.cls-2{opacity:0;}.cls-3{fill:#141618;}</style></defs><g id="_레이어_1-2"><rect class="cls-2" width="40" height="40"/><path class="cls-1" d="m37.04,33.47c.17-.27.18-.63.01-1.01l-2.46-5.53c-.35-.78-1.31-1.52-2.15-1.65l-6.44-1.01v-2.53l.09-.12c.64-.79,1.11-1.69,1.4-2.69l.08-.29h.3c.31-.03.59-.17.83-.42.28-.29.45-.7.49-1.14.03-.35-.03-.7-.17-1l-.06-.12.02-.13c.5-3.13-.07-5.86-1.62-7.69-1.39-1.65-3.53-2.52-6.17-2.52s-4.88.9-6.28,2.6c-1.52,1.84-2.05,4.54-1.49,7.6l.02.13-.06.12c-.14.3-.2.64-.17.99.04.45.21.85.49,1.15.22.24.49.38.77.41l.28.03.08.27c.29,1.02.8,1.97,1.46,2.76l.1.12v2.46l-4.83.76-.08-.39c-.03-.17-.1-.33-.18-.48l-.15-.26-.18-.34.99-3.69c.07-.24.03-.5-.09-.72-.13-.22-.33-.38-.57-.44-.5-.13-1.02.17-1.16.67l-.5,1.88-2.74-4.74c-.26-.45-.84-.61-1.29-.35-.22.13-.38.33-.44.57-.07.24-.03.5.09.72l1.91,3.31-.63.08c-.12.02-.24.06-.35.12-.23.13-.39.35-.45.61l-.09.38-.39-.06c-.22-.03-.43,0-.62.11-.22.13-.38.33-.44.57-.02.08-.03.17-.03.26v.42s-.42,0-.42,0c-.16,0-.32.04-.46.13-.45.26-.61.84-.35,1.29l.71,1.22c.03.06.08.12.12.17l.03.03,1.03,1.78c.16.28.4.5.69.64l1.65.8h-2.14v5.05h6.65v-.49h24.43c.41,0,.74-.15.92-.42Z"/><path class="cls-3" d="m17.06,13.74c.08,0,.16-.02.24-.07.61-.39,1.46-.41,2.16-.05.22.11.48.03.59-.19.11-.22.03-.48-.19-.59-.99-.51-2.15-.48-3.04.09-.2.13-.26.4-.13.61.08.13.23.2.37.2Z"/><path class="cls-3" d="m22.94,13.63c.7-.36,1.55-.34,2.16.05.07.05.15.07.24.07.14,0,.29-.07.37-.2.13-.2.07-.48-.13-.61-.89-.57-2.05-.6-3.04-.09-.22.11-.3.38-.19.59.11.22.38.3.59.19Z"/><path class="cls-3" d="m21.18,19s.02,0,.02,0c.44-.01.71-.42.93-.8.12-.21.05-.48-.16-.6-.21-.12-.48-.05-.6.16-.1.17-.17.26-.21.32-.05-.06-.14-.16-.26-.34-.14-.2-.41-.25-.61-.12-.2.14-.25.41-.12.61.27.39.57.78.99.78Z"/><circle class="cls-3" cx="18.4" cy="15.81" r=".5"/><circle class="cls-3" cx="23.93" cy="15.81" r=".5"/><path class="cls-3" d="m18.66,20.91s.91.49,2.51.49,2.51-.46,2.55-.48c.21-.11.3-.37.19-.59-.11-.22-.37-.3-.59-.19,0,0-.79.39-2.15.39s-2.07-.37-2.09-.38c-.21-.11-.48-.04-.59.17-.12.21-.04.48.17.6Z"/><path class="cls-3" d="m37.44,32.29l-2.46-5.53c-.4-.91-1.49-1.74-2.47-1.89l-6.08-.95v-2.01c.66-.81,1.17-1.78,1.48-2.84.41-.02.8-.21,1.12-.54.34-.36.56-.86.6-1.4.04-.44-.04-.86-.21-1.21.52-3.25-.08-6.1-1.71-8.03-1.48-1.75-3.72-2.67-6.49-2.67s-5.12.95-6.61,2.76c-1.6,1.95-2.16,4.76-1.58,7.95-.16.35-.24.77-.21,1.21.05.54.26,1.04.6,1.4.29.31.65.49,1.03.54.32,1.1.85,2.09,1.54,2.92v1.94l-4.08.64c-.04-.21-.12-.42-.23-.61l-.14-.25-.11-.2.95-3.53h0c.09-.35.05-.72-.14-1.04-.18-.32-.48-.54-.83-.64-.73-.19-1.48.24-1.68.97l-.24.9-2.23-3.86c-.38-.65-1.21-.88-1.87-.5-.32.18-.54.48-.64.83-.09.35-.05.72.14,1.04l1.59,2.76c-.17.02-.34.08-.51.17-.34.2-.56.52-.65.88-.3-.05-.61,0-.9.17-.32.18-.54.48-.64.83-.03.12-.05.25-.05.37-.23,0-.46.06-.66.18-.65.38-.88,1.22-.5,1.87l.71,1.22c.05.09.11.17.18.24l1.01,1.74c.21.36.51.63.87.81h-.72v5.9h7.5v-.49h24.01c.55,0,1.02-.22,1.27-.61.25-.39.27-.9.04-1.41Zm-9.22-15.58c0-.25,0-.51-.02-.76,0-.04,0-.09,0-.13.36.17.59.68.55,1.23-.03.34-.16.65-.37.87-.08.09-.17.15-.27.2.07-.45.12-.92.12-1.4,0,0,0,0,0,0Zm-14.16,1.2c-.21-.22-.34-.53-.37-.87-.04-.5.15-.97.46-1.18,0,.03,0,.05,0,.08-.01.26-.02.52-.02.76,0,0,0,0,0,0,0,.46.04.91.11,1.34-.06-.04-.12-.09-.18-.14Zm-7.58,3.48c.07-.04.16-.07.24-.07.08,0,.15.02.22.05.06.04.11.09.15.16l.97,1.68c.14.23.05.54-.18.67-.23.13-.53.05-.67-.18l-.57-.99-.22-.38c0-.05-.02-.11-.05-.16l-.06-.11c-.14-.23-.05-.53.18-.67Zm-1.77,1.34c.03-.13.11-.23.23-.3.14-.08.32-.08.46-.02.06.04.11.09.15.16l.55.95.35.61s0,0,0,0l.07.11c.07.11.08.25.05.37-.03.13-.12.23-.23.3,0,0,0,0,0,0-.11.07-.25.08-.37.05s-.23-.12-.3-.23c0,0,0,0,0,0v-.02s-.59-1.01-.59-1.01c0-.06-.02-.11-.05-.16h0s0,0,0,0l-.26-.45c-.07-.11-.08-.25-.05-.37Zm-.53,3.08l-.73-1.26-.03-.06c-.07-.11-.08-.25-.05-.37.03-.13.12-.23.23-.3.08-.04.16-.07.24-.07.04,0,.09,0,.13.02.03,0,.06.02.08.03.06.04.12.1.16.16l.71,1.22c.14.23.05.53-.18.67-.18.1-.4.08-.55-.04Zm6.84,2.66h-3.12l3.03-1.75s.05-.03.08-.05v1.8Zm.02-3.21c-.08.3-.27.54-.54.7l-3.68,2.12c-.27.15-.58.19-.88.12,0,0,0,0,0,0-.3-.08-.55-.27-.7-.54l-.51-.88c.15-.03.3-.08.43-.16,0,0,0,0,0,0,.3-.17.52-.45.62-.78.1.02.2.04.31.04.24,0,.47-.06.68-.18.2-.11.36-.27.47-.46l.58,1.01c.08.14.23.22.38.22.07,0,.15-.02.22-.06.21-.12.28-.39.16-.6l-.59-1.03c.11-.03.22-.07.32-.13,0,0,0,0,0,0,.62-.36.85-1.13.55-1.76l.6-.35c.21-.12.28-.39.16-.6-.12-.21-.39-.28-.6-.16l-.59.34-.48-.82c0-.05-.02-.11-.05-.16,0,0,0,0,0,0l-2.25-3.9c-.07-.11-.08-.25-.05-.37.03-.13.11-.23.23-.3.23-.14.54-.06.67.18l2.76,4.78c.09.15.26.24.44.22.18-.02.32-.15.37-.32l.51-1.92c.07-.26.34-.42.6-.35.13.03.23.11.3.23.07.11.08.25.05.37l-.99,3.7c-.03.11-.02.22.04.32l.19.36s0,0,0,.01l.15.26c.15.27.2.58.11.88Zm7.37-15.02c.97.59,2.09.99,3.42,1.23.17.03.35-.05.44-.19.1-.15.1-.34,0-.48-.05-.08-.1-.15-.15-.23.82.63,1.76,1.17,2.93,1.68.06.02.12.04.18.04.12,0,.25-.05.33-.15.13-.15.14-.36.04-.52-.16-.26-.29-.49-.38-.72,1.14.82,1.8,2.14,2.04,4.05l-1.01.31c-.26-1.03-1.19-1.8-2.3-1.8s-2.13.84-2.33,1.94h-.85c-.21-1.1-1.17-1.94-2.33-1.94s-2.05.77-2.31,1.81l-1-.3c.31-2.53,1.37-4.04,3.29-4.71Zm7.03,5.57c0,.83-.67,1.5-1.5,1.5s-1.5-.67-1.5-1.5.67-1.5,1.5-1.5,1.5.67,1.5,1.5Zm-5.52,0c0,.83-.67,1.5-1.5,1.5s-1.5-.67-1.5-1.5.67-1.5,1.5-1.5,1.5.67,1.5,1.5Zm-4.91.9s0,0,0,0c0-.24,0-.48.01-.73,0-.05,0-.09,0-.14l1.03.3c.16,1.15,1.15,2.04,2.35,2.04s2.13-.84,2.33-1.94h.85c.21,1.1,1.17,1.94,2.33,1.94s2.19-.89,2.35-2.04l1.04-.32c0,.05,0,.1.01.16,0,.25.01.49.01.73,0,0,0,0,0,0,0,3.8-2.77,6.89-6.17,6.89s-6.17-3.09-6.17-6.89Zm1.94,8.68l3.55,3.46-1.49,1.34-1.89-2.23-.17-2.57Zm2.97,8.04h-2.43l-.27-4,1.42,1.67c.08.09.19.15.31.15,0,0,.02,0,.03,0,.11,0,.21-.04.29-.11l.25-.22.57,1-.16,1.5Zm.88,0l.12-1.15h.57l.12,1.15h-.82Zm.83-2.03h-.85l-.61-1.07.97-.88,1.08.91-.59,1.04Zm3.3,2.03h-2.43l-.16-1.5.57-.99.26.22c.08.07.18.1.28.1.12,0,.25-.05.33-.16l1.42-1.67-.27,4Zm.36-5.47l-1.9,2.24-1.6-1.36,3.68-3.48-.17,2.59Zm.25-3.87l-4.4,4.16-4.27-4.16v-1.25c1.19,1.02,2.69,1.63,4.31,1.63s3.16-.63,4.37-1.68v1.29Z"/></g></svg>