<?xml version="1.0" encoding="UTF-8"?><svg id="_레이어_2" xmlns="http://www.w3.org/2000/svg" width="39" height="39" viewBox="0 0 39 39"><defs><style>.cls-1{fill:#fff;}.cls-2{fill:#141618;}</style></defs><g id="_레이어_1-2"><circle class="cls-1" cx="19.5" cy="19.5" r="19.5"/><path class="cls-2" d="m27.74,13.1c-.65-.25-1.34-.39-2.04-.41-.69-.05-2.85-.18-6.2-.18s-5.51.13-6.2.18c-.7.02-1.39.16-2.04.41-.53.28-.95.72-1.2,1.26-.22.49-.51,1.76-.51,5.13s.29,4.65.51,5.13c.25.54.67.99,1.2,1.26.65.25,1.34.39,2.04.41.69.05,2.85.18,6.2.18s5.51-.13,6.2-.18c.7-.02,1.39-.16,2.04-.41.53-.28.95-.72,1.2-1.26.22-.49.51-1.76.51-5.13s-.29-4.65-.51-5.13c-.25-.54-.67-.99-1.2-1.26Zm-10.22,9.38v-5.97l5.17,2.99-5.17,2.99Z"/></g></svg>