<?xml version="1.0" encoding="UTF-8"?><svg id="_레이어_2" xmlns="http://www.w3.org/2000/svg" width="40" height="40" viewBox="0 0 40 40"><defs><style>.cls-1,.cls-2{fill:#fff;}.cls-2{opacity:0;}.cls-3{fill:#141618;}</style></defs><g id="_레이어_1-2"><rect class="cls-2" width="40" height="40"/><path class="cls-1" d="m36.54,33.84c.17-.27.18-.63.01-1.01h0s-2.46-5.53-2.46-5.53c-.35-.78-1.31-1.51-2.16-1.63l-7.21-1.03v-.81l.32-.08c.45-.11.96-.29,1.41-.44,1.72-.59,3.67-1.25,4.83-.02l.02.02s.08.09.12.14c0,0,.02,0,.02,0,0,0,0-.02,0-.02-.04-.05-.08-.1-.12-.14l-.02-.02c-1.12-1.4-1.8-4.11-.81-6.98.97-2.72.02-6.95-3.68-9.78-2.63-2.02-5.61-2.3-7.97-.76l-.14.09-.16-.03c-2.22-.39-4.22.62-5.63,2.85-1.49,2.36-2.12,5.73-1.66,8.82l.1.63-.62-.16c-.24-.06-.46-.03-.66.07l-.39.2-.18-.4c-.15-.34-.49-.56-.86-.56s-.71.22-.86.56l-.18.4-.39-.2c-.13-.07-.27-.1-.42-.1-.52,0-.95.42-.95.95v.84l-.57-.22c-.11-.04-.22-.06-.34-.06-.52,0-.95.42-.95.95v7.37c0,.32.1.63.28.9l.35.52-.62.13s-.01,0-.01.02v5.9s0,.02.02.02h7.5s.02,0,.02-.02v-.95h24.11c.41,0,.74-.15.92-.42Zm-24.03-10.73l-1.07,1.07v-5.08s.8,1.52.8,1.52c.18.35.38.66.59.94.17.22.32.41.47.59l.5.58-.76.11c-.2.03-.39.12-.53.26Zm4.16,1.53l-3.26.47.55-.79c.11-.16.17-.34.17-.53,0,0,0-.02,0-.03l-.02-.72.64.33c.44.23.95.37,1.56.44l.37.04v.79Z"/><path class="cls-3" d="m16.56,14.3c.08,0,.16-.02.24-.07.62-.39,1.46-.41,2.16-.05.21.11.48.03.59-.19.11-.22.03-.48-.19-.59-.99-.51-2.15-.48-3.04.09-.2.13-.26.4-.13.61.08.13.23.2.37.2Z"/><path class="cls-3" d="m22.43,14.18c.7-.36,1.55-.34,2.16.05.07.05.15.07.24.07.14,0,.29-.07.37-.2.13-.2.07-.48-.13-.61-.89-.56-2.05-.6-3.04-.09-.22.11-.3.38-.19.59.11.22.38.3.59.19Z"/><path class="cls-3" d="m19.83,19.31c.07.04.15.06.22.06.15,0,.3-.08.38-.22.1-.17.17-.26.21-.32.05.06.14.16.26.34.14.2.41.25.61.12.2-.14.25-.41.12-.61-.27-.4-.58-.79-1.02-.78-.43.01-.71.42-.93.8-.12.21-.05.48.16.6Z"/><path class="cls-3" d="m18.16,21.07s.91.49,2.51.49,2.51-.46,2.55-.48c.21-.11.3-.37.19-.59-.11-.22-.37-.3-.59-.19,0,0-.79.39-2.15.39s-2.07-.37-2.09-.38c-.21-.11-.48-.04-.59.17-.12.21-.04.48.17.6Z"/><path class="cls-3" d="m36.93,32.67l-2.46-5.53c-.41-.91-1.5-1.73-2.48-1.88l-6.84-.98v-.11c.45-.11.93-.28,1.44-.45,1.68-.57,3.42-1.17,4.39-.13.04.05.09.1.13.15.16.18.43.2.61.05.18-.15.21-.42.07-.61-.05-.06-.09-.11-.14-.17-1.04-1.3-1.69-3.85-.74-6.58,1.02-2.86.04-7.29-3.82-10.25-2.79-2.14-5.94-2.42-8.46-.77-2.4-.42-4.55.65-6.06,3.04-1.6,2.54-2.18,6.06-1.72,9.1-.11-.03-.22-.05-.34-.05-.22,0-.43.05-.61.14-.21-.48-.69-.81-1.25-.81s-1.03.33-1.25.81c-.18-.09-.39-.14-.61-.14-.75,0-1.37.61-1.37,1.37v.23c-.15-.06-.32-.09-.49-.09-.75,0-1.37.61-1.37,1.37v7.37c0,.42.13.81.35,1.14-.2.04-.35.22-.35.43v5.9c0,.24.2.44.44.44h7.5c.24,0,.44-.2.44-.44v-.53h23.69c.55,0,1.02-.22,1.27-.61.25-.39.27-.9.04-1.41Zm-9.22-15.58s0-.08,0-.12c.3.22.48.7.41,1.21-.05.34-.19.64-.41.85-.08.08-.17.14-.26.18.17-.67.27-1.38.27-2.12,0,0,0,0,0,0Zm-13.16-1.34c.24-2.78,1.31-4.41,3.34-5.13.97.59,2.09.99,3.42,1.23.17.03.35-.05.44-.19.1-.15.09-.34,0-.48-.05-.08-.1-.15-.15-.23.82.63,1.76,1.17,2.93,1.68.06.02.12.04.18.04.12,0,.25-.05.33-.15.13-.15.14-.36.04-.52-.16-.26-.29-.49-.38-.73,1.23.88,1.9,2.34,2.09,4.49,0,.09.01.19.02.28h-1.06c-.16-1.04-1.06-1.72-2.35-1.72s-2.19.68-2.35,1.72h-.84c-.16-1.04-1.06-1.72-2.35-1.72s-2.19.68-2.35,1.72h-.98c0-.1.01-.19.02-.29Zm8.87,0c.1,0,.17.08.17.17s-.08.17-.17.17-.17-.08-.17-.17.08-.17.17-.17Zm0,1.01c.46,0,.83-.37.83-.83,0-.27-.13-.51-.33-.66.45.1.96.38.96,1.11,0,.88-.82,1.06-1.5,1.06s-1.5-.18-1.5-1.06c0-.77.58-1.04,1.05-1.13-.21.15-.35.4-.35.68,0,.46.37.83.83.83Zm-5.52-1.01c.1,0,.17.08.17.17s-.08.17-.17.17-.17-.08-.17-.17.08-.17.17-.17Zm0,1.01c.46,0,.83-.37.83-.83,0-.27-.13-.5-.32-.65.44.11.94.39.94,1.11,0,.88-.82,1.06-1.5,1.06s-1.5-.18-1.5-1.06c0-.78.6-1.05,1.06-1.13-.21.15-.35.4-.35.68,0,.46.37.83.83.83Zm-3.41.35c0-.06,0-.12,0-.18h1.06c.24.87,1.08,1.39,2.3,1.39s2.06-.52,2.3-1.39h.93c.24.87,1.08,1.39,2.3,1.39s2.06-.52,2.3-1.39h1.14c0,.06,0,.12,0,.18,0,0,0,0,0,0,0,3.8-2.77,6.89-6.17,6.89s-6.17-3.09-6.17-6.89c0,0,0,0,0,0Zm.05,6.7s0-.03,0-.05c.48.25,1.03.41,1.71.49v.05l-1.94.28c.16-.23.24-.49.24-.77Zm-.93-6.74s0,.03,0,.04c0,0,0,0,0,0,0,.72.09,1.41.26,2.07-.06-.03-.11-.08-.16-.13-.22-.21-.36-.51-.41-.85-.06-.46.07-.89.32-1.14Zm-1.76,3.78c.19.36.4.69.63,1,.16.22.33.42.49.61-.28.04-.55.17-.77.38l-.35.35v-2.34Zm-1.86,2.63v-4.58c0-.27.22-.49.49-.49s.49.22.49.49v4.91h-.8c-.13,0-.25.01-.37.03.12-.08.19-.21.19-.36Zm1.05,11.32h-6.62v-5.02h.83c.1.02.21.03.32.03h4.25c.11,0,.22,0,.32-.03h.9v5.02Zm.07-8.33c-.09.08-.13.2-.13.32v.98c0,.55-.39,1.02-.91,1.13h-4.73c-.52-.11-.91-.57-.91-1.13v-7.37c0-.27.22-.49.49-.49s.49.22.49.49v3.08c0,.24.2.44.44.44s.44-.2.44-.44v-4.58c0-.27.22-.49.49-.49s.49.22.49.49v4.58c0,.24.2.44.44.44s.44-.2.44-.44v-5.24c0-.27.22-.49.49-.49s.49.22.49.49v5.24c0,.23.18.42.41.44-.8.27-1.38,1.03-1.38,1.92v1.24c0,.24.2.44.44.44s.44-.2.44-.44v-1.24c0-.64.52-1.15,1.15-1.15h1.24s0,0,0,0c.03,0,.05,0,.08,0,0,0,0,0,0,0,.02,0,.04-.01.06-.02,0,0,.02,0,.02-.01.02,0,.03-.02.05-.03,0,0,.01,0,.02-.01.02-.01.04-.03.06-.05,0,0,0,0,0,0l1.09-1.09c.19-.19.5-.19.69,0,.19.19.19.5,0,.69l-2.41,2.32Zm.81,7.36v-4.49c0-.23-.18-.42-.41-.44.22-.32.34-.71.34-1.13v-.8l1.41-1.36,1.06-.15c-.13.05-.23.16-.26.3l-.88,3.53c-.05.21.06.43.26.51l1.7.68-1.54,1.3c-.09.08-.15.18-.15.3,0,.12.03.23.11.32l1.19,1.37s.04.04.06.06h-2.89Zm3.43,0s.01,0,.02-.01c.18-.16.2-.44.04-.62l-.9-1.03,1.76-1.48c.12-.1.18-.25.15-.41-.02-.15-.13-.28-.27-.34l-2.03-.8.79-3.16c.06-.24-.08-.47-.32-.53-.02,0-.05,0-.07,0l1.79-.26,1.27,8.65h-2.23Zm3.08-4.9l-.8-.81-.38-2.58,2.7,1.64-1.52,1.75Zm-1.31-4.5v-.61c1.04.67,2.25,1.05,3.54,1.05s2.54-.4,3.6-1.09v.65l-3.64,2.13-3.5-2.13Zm5.82,4.51l-1.63-1.77,2.82-1.65-.38,2.6-.81.82Zm.86,4.89l1.27-8.65,1.79.26s-.04,0-.07.01c-.23.06-.38.3-.32.53l.79,3.16-2.03.8c-.14.06-.25.19-.27.34-.02.15.03.31.15.41l1.76,1.48-.9,1.03c-.16.18-.14.46.04.62,0,0,.01,0,.02.01h-2.23Zm12.35-.21c-.09.13-.28.21-.53.21h-9.05s.04-.04.06-.06l1.19-1.37c.08-.09.12-.2.11-.32,0-.12-.06-.23-.15-.3l-1.54-1.3,1.7-.68c.2-.08.32-.3.26-.51l-.88-3.53c-.04-.14-.14-.25-.26-.3l4.8.69c.68.1,1.53.73,1.81,1.36l2.46,5.53c.1.23.11.44.02.57Z"/></g></svg>