<?xml version="1.0" encoding="UTF-8"?><svg id="_레이어_2" xmlns="http://www.w3.org/2000/svg" width="39" height="39" viewBox="0 0 39 39"><defs><style>.cls-1{fill:#fff;}.cls-2{fill:#141618;}</style></defs><g id="_레이어_1-2"><circle class="cls-1" cx="19.5" cy="19.5" r="19.5"/><path class="cls-2" d="m19.5,14.29c-2.88,0-5.21,2.33-5.21,5.21s2.33,5.21,5.21,5.21,5.21-2.33,5.21-5.21-2.33-5.21-5.21-5.21Zm0,8.59c-1.87,0-3.38-1.52-3.38-3.38s1.52-3.38,3.38-3.38,3.38,1.52,3.38,3.38-1.52,3.38-3.38,3.38Z"/><path class="cls-2" d="m24.07,13.21c-.48.48-.48,1.25,0,1.73.48.48,1.25.48,1.73,0,.48-.48.48-1.25,0-1.73s-1.25-.48-1.73,0Z"/><path class="cls-2" d="m29.41,14.16c-.16-.93-.39-1.45-.64-1.91-.28-.52-.59-.88-.87-1.15-.28-.28-.64-.58-1.15-.87-.46-.25-.97-.48-1.91-.64-.89-.15-1.5-.14-2.56-.16-1.06-.01-2.29-.01-2.78-.01s-1.72,0-2.78.01c-1.06.01-1.67,0-2.56.16-.93.16-1.45.39-1.91.64-.52.28-.88.59-1.15.87-.28.28-.58.64-.87,1.15-.25.46-.48.97-.64,1.91-.15.89-.14,1.5-.16,2.56s-.01,2.29-.01,2.78,0,1.72.01,2.78,0,1.67.16,2.56c.16.93.39,1.45.64,1.91.28.52.59.88.87,1.15.28.28.64.58,1.15.87.46.25.97.48,1.91.64.89.15,1.5.14,2.56.16,1.06.01,2.29.01,2.78.01s1.72,0,2.78-.01c1.06-.01,1.67,0,2.56-.16.93-.16,1.45-.39,1.91-.64.52-.28.88-.59,1.15-.87.28-.28.58-.64.87-1.15.25-.46.48-.97.64-1.91.15-.89.14-1.5.16-2.56.01-1.06.01-2.29.01-2.78s0-1.72-.01-2.78c-.01-1.06,0-1.67-.16-2.56Zm-1.66,8.1v.27c-.01.86-.02,1.34-.13,2.01-.12.7-.27,1.03-.44,1.33-.19.36-.39.57-.56.74-.17.17-.38.36-.74.56-.3.16-.63.32-1.33.44-.67.11-1.15.12-2.01.13h-.27c-1.05.02-2.29.02-2.75.02s-1.7,0-2.75-.01h-.27c-.86-.01-1.34-.02-2.01-.13-.7-.12-1.03-.27-1.33-.44-.36-.19-.57-.39-.74-.56-.17-.17-.36-.38-.56-.74-.16-.3-.32-.63-.44-1.33-.11-.67-.12-1.15-.13-2.01v-.27c-.02-1.05-.02-2.29-.02-2.75s0-1.7.01-2.75v-.27c.01-.86.02-1.34.13-2.01.12-.7.27-1.03.44-1.33.19-.36.39-.57.56-.74.17-.17.38-.36.74-.56.3-.16.63-.32,1.33-.44.67-.11,1.15-.12,2.01-.13h.27c1.05-.02,2.29-.02,2.75-.02s1.7,0,2.75.01h.27c.86.01,1.34.02,2.01.13.7.12,1.03.27,1.33.44.36.19.57.39.74.56.17.17.36.38.56.74.16.3.32.63.44,1.33.11.67.12,1.15.13,2.01v.27c.02,1.05.02,2.29.02,2.75s0,1.7-.01,2.75Z"/></g></svg>